<svg width="119" height="25" viewBox="0 0 119 25" fill="none" xmlns="http://www.w3.org/2000/svg">
    <path d="M21.4709 5.6865H23.7378V18.8898H21.4709V5.6865Z" fill="#726E76"/>
    <path d="M26.3447 5.62453H28.4631V7.5066C29.09 6.72985 29.7558 6.17359 30.4576 5.83493C31.1594 5.49628 31.9391 5.32767 32.798 5.32767C34.68 5.32767 35.9525 5.98337 36.6125 7.2962C36.9757 8.01387 37.1573 9.04281 37.1573 10.3801V18.8884H34.8904V10.5286C34.8904 9.72013 34.7708 9.06731 34.5316 8.57157C34.1353 7.74583 33.4162 7.33367 32.3772 7.33367C31.8483 7.33367 31.4159 7.38699 31.0773 7.49507C30.4663 7.67665 29.9302 8.03981 29.4676 8.58454C29.0958 9.02264 28.8551 9.4737 28.7427 9.94061C28.6317 10.4075 28.5755 11.0733 28.5755 11.9409V18.8884H26.3462V5.62453H26.3447Z" fill="#726E76"/>
    <path d="M39.437 5.62453H41.5554V7.5066C42.1823 6.72985 42.8481 6.17359 43.5499 5.83493C44.2517 5.49628 45.0313 5.32767 45.8902 5.32767C47.7723 5.32767 49.0448 5.98337 49.7048 7.2962C50.068 8.01387 50.2495 9.04281 50.2495 10.3801V18.8884H47.9827V10.5286C47.9827 9.72013 47.8631 9.06731 47.6239 8.57157C47.2276 7.74583 46.5085 7.33367 45.4694 7.33367C44.9406 7.33367 44.5068 7.38699 44.1681 7.49507C43.5571 7.67665 43.021 8.03981 42.5584 8.58454C42.1866 9.02264 41.946 9.4737 41.8336 9.94061C41.7226 10.4075 41.6664 11.0733 41.6664 11.9409V18.8884H39.437V5.62453Z" fill="#726E76"/>
    <path d="M62.901 6.9489C64.0726 8.08737 64.6591 9.76192 64.6591 11.9726C64.6591 14.1832 64.1417 15.875 63.1099 17.2686C62.0766 18.6621 60.4741 19.3596 58.301 19.3596C56.4895 19.3596 55.0499 18.7428 53.9849 17.5092C52.9185 16.2757 52.3867 14.6199 52.3867 12.5404C52.3867 10.3124 52.9487 8.53987 54.0714 7.21983C55.194 5.89978 56.7028 5.23976 58.5964 5.23976C60.294 5.23976 61.7279 5.80899 62.901 6.94746V6.9489ZM61.5161 15.7641C62.0594 14.6472 62.3303 13.4036 62.3303 12.0345C62.3303 10.7981 62.1343 9.79218 61.7423 9.01687C61.1212 7.79626 60.0519 7.18668 58.533 7.18668C57.1856 7.18668 56.2056 7.70692 55.5932 8.74595C54.9807 9.78498 54.6752 11.0387 54.6752 12.5058C54.6752 13.9728 54.9807 15.0911 55.5932 16.0307C56.2056 16.9703 57.1769 17.4415 58.5085 17.4415C59.9698 17.4415 60.9713 16.8824 61.5146 15.7655L61.5161 15.7641Z" fill="#726E76"/>
    <path d="M67.2488 14.9009C67.7978 13.7696 68.8686 12.7421 70.4624 11.8169L72.8402 10.4421C73.9052 9.82245 74.6531 9.29357 75.0811 8.85547C75.7584 8.16951 76.0971 7.38267 76.0971 6.49784C76.0971 5.46313 75.7873 4.64315 75.1676 4.03501C74.5479 3.42687 73.7222 3.1228 72.6904 3.1228C71.1628 3.1228 70.1065 3.70212 69.5199 4.8622C69.2058 5.48331 69.0329 6.34509 68.9997 7.44608H66.7329C66.7574 5.90267 67.0427 4.64315 67.5874 3.66897C68.553 1.95119 70.2578 1.09229 72.7033 1.09229C74.7338 1.09229 76.2182 1.64135 77.1563 2.73946C78.093 3.83758 78.5614 5.05963 78.5614 6.40561C78.5614 7.82653 78.0613 9.03993 77.0626 10.0473C76.4848 10.6338 75.4486 11.3442 73.9542 12.1772L72.258 13.1182C71.4481 13.5635 70.8126 13.9901 70.35 14.3936C69.5243 15.1127 69.004 15.9082 68.7893 16.7844H78.4749V18.8898H66.3005C66.3827 17.3623 66.6983 16.0336 67.2473 14.9023L67.2488 14.9009Z" fill="#2674A3"/>
    <path d="M88.1158 6.15774C88.5351 6.4474 88.9631 6.8682 89.3984 7.42158V5.74991H91.4548V17.8119C91.4548 19.4965 91.2084 20.8252 90.7141 21.7994C89.7918 23.5993 88.0524 24.5 85.493 24.5C84.0692 24.5 82.8716 24.1801 81.9003 23.5402C80.929 22.9004 80.3857 21.8988 80.2705 20.537H82.5373C82.6439 21.1307 82.8572 21.589 83.1771 21.9118C83.6786 22.4075 84.4669 22.6554 85.542 22.6554C87.2425 22.6554 88.355 22.053 88.8796 20.8468C89.1923 20.1364 89.3349 18.8696 89.3104 17.0438C88.8666 17.7211 88.3319 18.224 87.7065 18.5555C87.0811 18.8855 86.2553 19.0512 85.2264 19.0512C83.7954 19.0512 82.5431 18.5411 81.4695 17.5222C80.3958 16.5019 79.8597 14.8158 79.8597 12.4625C79.8597 10.2418 80.4002 8.50816 81.4824 7.26017C82.5632 6.01363 83.8703 5.38963 85.3993 5.38963C86.4355 5.38963 87.3405 5.64615 88.1129 6.15774H88.1158ZM88.3882 8.54851C87.7152 7.75591 86.8563 7.35961 85.8129 7.35961C84.2522 7.35961 83.1844 8.09457 82.6094 9.56449C82.3053 10.3484 82.154 11.3774 82.154 12.6484C82.154 14.1428 82.4566 15.2799 83.059 16.0609C83.6628 16.8406 84.4741 17.2311 85.493 17.2311C87.0868 17.2311 88.208 16.5091 88.8565 15.0637C89.2182 14.2466 89.3984 13.2926 89.3984 12.2031C89.3984 10.5603 89.0611 9.34256 88.3882 8.54996V8.54851Z" fill="#726E76"/>
    <path d="M94.1496 5.62453H96.268V7.91587C96.441 7.47058 96.8661 6.92728 97.5434 6.28744C98.2207 5.64759 99.0004 5.32767 99.8838 5.32767C99.9255 5.32767 99.9947 5.33199 100.094 5.34064C100.194 5.34928 100.362 5.36514 100.601 5.38963V7.74294C100.469 7.71844 100.348 7.70115 100.235 7.69395C100.124 7.6853 100.002 7.68098 99.8693 7.68098C98.7467 7.68098 97.8835 8.04269 97.2811 8.76468C96.6788 9.48667 96.3776 10.3196 96.3776 11.2607V18.8898H94.1482V5.62453H94.1496Z" fill="#726E76"/>
    <path d="M102.28 5.6865H104.547V18.8898H102.28V5.6865Z" fill="#726E76"/>
    <path d="M114.95 6.03381C115.345 6.28168 115.793 6.71545 116.295 7.33368V0.634026H118.438V18.8898H116.432V17.0438C115.913 17.8609 115.301 18.4517 114.593 18.8149C113.885 19.178 113.076 19.3596 112.162 19.3596C110.689 19.3596 109.415 18.7385 108.337 17.4948C107.259 16.2526 106.72 14.5982 106.72 12.5346C106.72 10.6021 107.212 8.92897 108.195 7.51237C109.177 6.09578 110.582 5.3882 112.408 5.3882C113.42 5.3882 114.267 5.60292 114.949 6.03237L114.95 6.03381ZM109.974 15.9788C110.574 16.9371 111.535 17.4156 112.858 17.4156C113.884 17.4156 114.729 16.9717 115.39 16.084C116.051 15.1963 116.381 13.9224 116.381 12.2637C116.381 10.605 116.04 9.34689 115.358 8.54131C114.677 7.73574 113.835 7.33368 112.832 7.33368C111.715 7.33368 110.809 7.76312 110.114 8.62202C109.42 9.48091 109.074 10.7448 109.074 12.4121C109.074 13.833 109.373 15.0219 109.973 15.9788H109.974Z" fill="#726E76"/>
    <path d="M13.2826 18.2384C13.2826 13.2479 13.2826 8.25598 13.2826 3.26546V1.16435L12.4684 1.78546C15.3707 2.23796 16.9531 5.23544 17.3638 7.85679L17.9849 7.04257C12.9266 7.03681 7.8684 7.03249 2.81015 7.02672C2.08817 7.02672 1.36618 7.02528 0.644188 7.02384L1.2653 7.83806C1.59675 5.85511 2.31009 3.69491 4.06535 2.52186C4.49047 2.23796 4.95018 2.02324 5.44448 1.89786C5.59579 1.85895 5.88833 1.78258 5.7961 1.82293C5.84366 1.80275 5.9258 1.80996 5.97912 1.80851L5.33495 1.16435C5.33495 6.15486 5.33495 11.1468 5.33495 16.1373V18.237L6.14917 17.6159C4.25701 17.0539 2.7871 15.7958 1.95558 14.0074C1.70051 13.4569 1.51605 12.8704 1.39068 12.2766C1.36185 12.1383 1.30565 11.791 1.30133 11.7795C1.32006 11.8371 1.2898 11.6699 1.28548 11.6137L0.641306 12.2579H18.0108L17.3897 11.4437C16.9142 14.1083 15.2425 16.9487 12.4684 17.6188C11.6642 17.8133 12.0043 19.0541 12.8099 18.8596C16.0019 18.0886 18.0771 14.8836 18.6305 11.7852C18.7026 11.3803 18.459 10.971 18.0094 10.971H0.644188C0.312736 10.971 -0.0215982 11.2664 1.82755e-05 11.6152C0.216183 14.9873 2.59255 17.9056 5.80619 18.8596C6.20826 18.9792 6.62041 18.6506 6.62041 18.2384V1.16435C6.62041 0.821365 6.32499 0.514411 5.97624 0.520176C2.4225 0.585025 0.523136 4.5048 0.0245169 7.49508C-0.0432146 7.90147 0.193125 8.3093 0.645629 8.3093C5.70387 8.31506 10.7621 8.31938 15.8204 8.32515C16.5424 8.32515 17.2643 8.32659 17.9863 8.32803C18.4417 8.32803 18.6708 7.91876 18.6074 7.51381C18.1304 4.49183 16.1244 1.06059 12.8114 0.544674C12.4064 0.481266 11.9971 0.708959 11.9971 1.16579V18.2384C11.9971 19.0671 13.284 19.0685 13.284 18.2384H13.2826Z" fill="#2674A3"/>
    <path d="M22.6035 3.30725C23.3716 3.30725 23.9942 2.68464 23.9942 1.9166C23.9942 1.14856 23.3716 0.52594 22.6035 0.52594C21.8355 0.52594 21.2129 1.14856 21.2129 1.9166C21.2129 2.68464 21.8355 3.30725 22.6035 3.30725Z" fill="#726E76"/>
    <path d="M103.414 3.28131C104.182 3.28131 104.805 2.6587 104.805 1.89066C104.805 1.12262 104.182 0.5 103.414 0.5C102.646 0.5 102.024 1.12262 102.024 1.89066C102.024 2.6587 102.646 3.28131 103.414 3.28131Z" fill="#726E76"/>
</svg>
