<svg width="32" height="32" viewBox="0 0 32 32" fill="none" xmlns="http://www.w3.org/2000/svg">
    <g clip-path="url(#clip0_1264_2798)">
        <path d="M21.3331 17.0666L19.8664 13.6C19.8142 13.4804 19.7989 13.3479 19.8227 13.2195C19.8465 13.0912 19.9081 12.9729 19.9997 12.88L22.6664 10.0266C22.8001 9.90936 22.8938 9.75324 22.9344 9.5801C22.9751 9.40696 22.9606 9.22545 22.893 9.06094C22.8255 8.89643 22.7082 8.75714 22.5576 8.66254C22.407 8.56794 22.2306 8.52276 22.0531 8.5333H18.9864C18.8614 8.53355 18.7389 8.49869 18.6329 8.43268C18.5268 8.36667 18.4414 8.27217 18.3864 8.15997L16.8264 4.83997C16.7508 4.68514 16.6332 4.55466 16.487 4.46339C16.3409 4.37212 16.172 4.32373 15.9997 4.32373C15.8274 4.32373 15.6586 4.37212 15.5124 4.46339C15.3663 4.55466 15.2487 4.68514 15.1731 4.83997L13.5597 8.15997C13.5047 8.27217 13.4193 8.36667 13.3133 8.43268C13.2072 8.49869 13.0847 8.53355 12.9597 8.5333H9.87972C9.7079 8.53684 9.54115 8.59217 9.40131 8.69206C9.26146 8.79194 9.15503 8.93173 9.09595 9.09311C9.03687 9.2545 9.0279 9.42996 9.07021 9.59653C9.11251 9.76309 9.20413 9.91301 9.33306 10.0266L11.9997 12.88C12.0913 12.9729 12.153 13.0912 12.1767 13.2195C12.2005 13.3479 12.1853 13.4804 12.1331 13.6L10.6664 17.0666C10.5877 17.2469 10.5688 17.4477 10.6126 17.6395C10.6564 17.8313 10.7605 18.004 10.9096 18.1323C11.0588 18.2606 11.2452 18.3377 11.4414 18.3522C11.6375 18.3668 11.8332 18.3181 11.9997 18.2133L15.7197 16.1066C15.8211 16.0481 15.936 16.0173 16.0531 16.0173C16.1701 16.0173 16.285 16.0481 16.3864 16.1066L20.1197 18.2133C20.2828 18.2847 20.4633 18.3065 20.6387 18.276C20.8141 18.2454 20.9766 18.164 21.106 18.0417C21.2354 17.9194 21.3259 17.7617 21.3663 17.5883C21.4067 17.4149 21.3951 17.2335 21.3331 17.0666Z" fill="#4E87C4"/>
        <path d="M31.7867 21.3333C31.8902 21.244 31.963 21.1245 31.995 20.9916C32.027 20.8587 32.0164 20.7191 31.9649 20.5925C31.9134 20.4659 31.8235 20.3587 31.7078 20.2858C31.5921 20.213 31.4565 20.1784 31.32 20.1867H29.08C28.9551 20.1869 28.8326 20.152 28.7265 20.086C28.6204 20.02 28.535 19.9255 28.48 19.8133L27.2934 17.3333C27.2372 17.2147 27.1485 17.1144 27.0375 17.0442C26.9266 16.9739 26.798 16.9366 26.6667 16.9366C26.5354 16.9366 26.4068 16.9739 26.2959 17.0442C26.1849 17.1144 26.0962 17.2147 26.04 17.3333L24.8534 19.7733C24.7984 19.8855 24.713 19.98 24.6069 20.046C24.5008 20.112 24.3783 20.1469 24.2534 20.1467H22.0134C21.8769 20.1384 21.7413 20.173 21.6257 20.2458C21.51 20.3187 21.42 20.4259 21.3685 20.5525C21.317 20.6791 21.3065 20.8187 21.3384 20.9516C21.3704 21.0845 21.4432 21.204 21.5467 21.2933L23.56 23.3867C23.6464 23.4829 23.7036 23.6017 23.7248 23.7292C23.7461 23.8567 23.7306 23.9877 23.68 24.1067L22.5867 26.6667C22.5264 26.8011 22.5104 26.9512 22.5412 27.0953C22.5719 27.2394 22.6478 27.37 22.7577 27.468C22.8677 27.5661 23.006 27.6266 23.1527 27.6407C23.2994 27.6549 23.4467 27.6219 23.5734 27.5467L26.3334 25.9867C26.4347 25.9282 26.5497 25.8973 26.6667 25.8973C26.7837 25.8973 26.8987 25.9282 27 25.9867L29.76 27.5467C29.8876 27.6177 30.034 27.6476 30.1792 27.632C30.3244 27.6165 30.4612 27.5563 30.5709 27.4599C30.6805 27.3634 30.7575 27.2353 30.7914 27.0933C30.8253 26.9513 30.8143 26.8022 30.76 26.6667L29.6534 24.1333C29.6011 24.0137 29.5859 23.8812 29.6097 23.7529C29.6335 23.6246 29.6951 23.5063 29.7867 23.4133L31.7867 21.3333Z" fill="#4E87C4"/>
        <path d="M9.98634 20.2H7.74634C7.62139 20.2002 7.49889 20.1654 7.3928 20.0994C7.28672 20.0334 7.20132 19.9389 7.14634 19.8267L5.95967 17.3333C5.9035 17.2147 5.81478 17.1144 5.70384 17.0442C5.5929 16.9739 5.4643 16.9366 5.33301 16.9366C5.20171 16.9366 5.07311 16.9739 4.96217 17.0442C4.85123 17.1144 4.76252 17.2147 4.70634 17.3333L3.51967 19.7733C3.4647 19.8855 3.3793 19.98 3.27321 20.046C3.16712 20.112 3.04462 20.1469 2.91967 20.1467H0.679673C0.532959 20.1238 0.382836 20.1516 0.254037 20.2255C0.125239 20.2994 0.0254482 20.4149 -0.0288932 20.5531C-0.0832347 20.6913 -0.0888855 20.8439 -0.0449145 20.9857C-0.000943571 21.1275 0.0900259 21.2501 0.213006 21.3333L2.22634 23.4267C2.31272 23.5229 2.36988 23.6417 2.39113 23.7692C2.41239 23.8967 2.39685 24.0277 2.34634 24.1467L1.25301 26.6667C1.19267 26.8011 1.17672 26.9512 1.20748 27.0953C1.23823 27.2394 1.31409 27.37 1.42404 27.468C1.534 27.5661 1.67234 27.6266 1.819 27.6407C1.96566 27.6549 2.113 27.6219 2.23967 27.5467L4.99967 25.9867C5.10102 25.9282 5.21598 25.8973 5.33301 25.8973C5.45003 25.8973 5.56499 25.9282 5.66634 25.9867L8.42634 27.5467C8.55389 27.6177 8.70034 27.6476 8.84553 27.632C8.99073 27.6165 9.12754 27.5563 9.23716 27.4599C9.34678 27.3634 9.42383 27.2353 9.4577 27.0933C9.49158 26.9513 9.48062 26.8022 9.42634 26.6667L8.31967 24.1333C8.26744 24.0137 8.25223 23.8812 8.27599 23.7529C8.29976 23.6246 8.36141 23.5063 8.45301 23.4133L10.453 21.3333C10.5512 21.2428 10.6193 21.1244 10.6482 20.9941C10.677 20.8637 10.6652 20.7276 10.6144 20.6041C10.5635 20.4807 10.4761 20.3757 10.3638 20.3035C10.2515 20.2312 10.1198 20.1951 9.98634 20.2Z" fill="#4E87C4"/>
    </g>
    <defs>
        <clipPath id="clip0_1264_2798">
            <rect width="32" height="32" fill="white"/>
        </clipPath>
    </defs>
</svg>
