<svg width="32" height="32" viewBox="0 0 32 32" fill="none" xmlns="http://www.w3.org/2000/svg">
    <g clip-path="url(#clip0_560_669)">
        <path d="M27.3335 -2.77501e-05H16.6668C16.1995 -0.00687621 15.7445 0.149021 15.3796 0.44094C15.0147 0.732859 14.7627 1.14262 14.6668 1.59997C14.658 1.64872 14.6595 1.69875 14.6709 1.74692C14.6824 1.7951 14.7037 1.8404 14.7335 1.87997C14.7659 1.91893 14.8067 1.94998 14.8529 1.97078C14.8991 1.99157 14.9495 2.00155 15.0001 1.99997H23.3335C23.5987 1.99997 23.853 2.10533 24.0406 2.29287C24.2281 2.4804 24.3335 2.73476 24.3335 2.99997C24.3335 3.26519 24.2281 3.51954 24.0406 3.70708C23.853 3.89462 23.5987 3.99997 23.3335 3.99997H15.0001C14.9117 3.99997 14.8269 4.03509 14.7644 4.0976C14.7019 4.16012 14.6668 4.2449 14.6668 4.33331V5.66664C14.6668 5.75504 14.7019 5.83983 14.7644 5.90234C14.8269 5.96485 14.9117 5.99997 15.0001 5.99997H20.6668C20.932 5.99997 21.1864 6.10533 21.3739 6.29287C21.5614 6.4804 21.6668 6.73476 21.6668 6.99997C21.6668 7.26519 21.5614 7.51954 21.3739 7.70708C21.1864 7.89462 20.932 7.99997 20.6668 7.99997H15.0001C14.9117 7.99997 14.8269 8.03509 14.7644 8.0976C14.7019 8.16012 14.6668 8.2449 14.6668 8.33331V9.66664C14.6668 9.75504 14.7019 9.83983 14.7644 9.90234C14.8269 9.96485 14.9117 9.99997 15.0001 9.99997H15.3335C16.3943 9.99997 17.4117 10.4214 18.1619 11.1715C18.912 11.9217 19.3335 12.9391 19.3335 14V31.6266C19.3278 31.6737 19.3322 31.7213 19.3464 31.7665C19.3605 31.8117 19.3842 31.8533 19.4157 31.8887C19.4473 31.924 19.486 31.9522 19.5293 31.9714C19.5726 31.9906 19.6194 32.0003 19.6668 32H21.0001C21.0885 32 21.1733 31.9649 21.2358 31.9023C21.2983 31.8398 21.3335 31.755 21.3335 31.6666V28C21.3335 27.6463 21.4739 27.3072 21.724 27.0572C21.974 26.8071 22.3132 26.6666 22.6668 26.6666H25.3335C25.6871 26.6666 26.0262 26.8071 26.2763 27.0572C26.5263 27.3072 26.6668 27.6463 26.6668 28V31.6666C26.6668 31.755 26.7019 31.8398 26.7644 31.9023C26.8269 31.9649 26.9117 32 27.0001 32H28.0001C28.3537 32 28.6929 31.8595 28.9429 31.6094C29.193 31.3594 29.3335 31.0203 29.3335 30.6666V1.99997C29.3335 1.46954 29.1227 0.960831 28.7477 0.585759C28.3726 0.210686 27.8639 -2.77501e-05 27.3335 -2.77501e-05Z" fill="#4E87C4"/>
        <path d="M15.3334 12H4.66675C4.13631 12 3.62761 12.2107 3.25253 12.5858C2.87746 12.9609 2.66675 13.4696 2.66675 14V14.3333C2.66675 14.4217 2.70187 14.5065 2.76438 14.569C2.82689 14.6315 2.91168 14.6667 3.00008 14.6667H8.66675C8.93196 14.6667 9.18632 14.772 9.37385 14.9596C9.56139 15.1471 9.66675 15.4015 9.66675 15.6667C9.66675 15.9319 9.56139 16.1862 9.37385 16.3738C9.18632 16.5613 8.93196 16.6667 8.66675 16.6667H3.00008C2.91168 16.6667 2.82689 16.7018 2.76438 16.7643C2.70187 16.8268 2.66675 16.9116 2.66675 17V19C2.66675 19.0884 2.70187 19.1732 2.76438 19.2357C2.82689 19.2982 2.91168 19.3333 3.00008 19.3333H6.00008C6.2653 19.3333 6.51965 19.4387 6.70719 19.6262C6.89472 19.8138 7.00008 20.0681 7.00008 20.3333C7.00008 20.5986 6.89472 20.8529 6.70719 21.0404C6.51965 21.228 6.2653 21.3333 6.00008 21.3333H3.00008C2.91168 21.3333 2.82689 21.3685 2.76438 21.431C2.70187 21.4935 2.66675 21.5783 2.66675 21.6667V30.6667C2.66675 31.0203 2.80722 31.3594 3.05727 31.6095C3.30732 31.8595 3.64646 32 4.00008 32H5.00008C5.08849 32 5.17327 31.9649 5.23578 31.9024C5.2983 31.8399 5.33341 31.7551 5.33341 31.6667V28C5.33341 27.6464 5.47389 27.3072 5.72394 27.0572C5.97399 26.8071 6.31313 26.6667 6.66675 26.6667H9.33341C9.50851 26.6667 9.68189 26.7012 9.84366 26.7682C10.0054 26.8352 10.1524 26.9334 10.2762 27.0572C10.4 27.181 10.4982 27.328 10.5653 27.4898C10.6323 27.6515 10.6667 27.8249 10.6667 28V31.6667C10.6667 31.7551 10.7019 31.8399 10.7644 31.9024C10.8269 31.9649 10.9117 32 11.0001 32H16.6667C16.7543 32 16.841 31.9828 16.9219 31.9493C17.0028 31.9158 17.0762 31.8666 17.1382 31.8047C17.2001 31.7428 17.2492 31.6693 17.2827 31.5885C17.3162 31.5076 17.3334 31.4209 17.3334 31.3333V14C17.3334 13.4696 17.1227 12.9609 16.7476 12.5858C16.3726 12.2107 15.8638 12 15.3334 12Z" fill="#4E87C4"/>
    </g>
    <defs>
        <clipPath id="clip0_560_669">
            <rect width="32" height="32" fill="white"/>
        </clipPath>
    </defs>
</svg>
