<svg width="32" height="32" viewBox="0 0 32 32" fill="none" xmlns="http://www.w3.org/2000/svg">
    <g clip-path="url(#clip0_560_579)">
        <path d="M16.0001 6.43994C13.7532 6.48099 11.6099 7.39181 10.0209 8.98081C8.43192 10.5698 7.5211 12.7131 7.48005 14.9599C7.45341 16.6373 7.93445 18.2835 8.86005 19.6826C9.78565 21.0818 11.1126 22.1684 12.6667 22.7999H12.7867H14.6667C14.7551 22.7999 14.8399 22.7648 14.9024 22.7023C14.9649 22.6398 15.0001 22.555 15.0001 22.4666V18.1199C15.0018 18.0777 14.9943 18.0355 14.9782 17.9964C14.9621 17.9573 14.9377 17.9221 14.9067 17.8933L12.6801 15.6533C12.5815 15.4668 12.5453 15.2537 12.5768 15.0452C12.6082 14.8367 12.7056 14.6437 12.8547 14.4946C13.0038 14.3455 13.1968 14.2481 13.4053 14.2167C13.6138 14.1852 13.8269 14.2214 14.0134 14.3199L15.7601 15.9999C15.7901 16.034 15.827 16.0613 15.8684 16.0799C15.9098 16.0986 15.9547 16.1083 16.0001 16.1083C16.0455 16.1083 16.0903 16.0986 16.1317 16.0799C16.1731 16.0613 16.21 16.034 16.2401 15.9999L17.9334 14.3199C18.1198 14.2214 18.3329 14.1852 18.5415 14.2167C18.75 14.2481 18.9429 14.3455 19.092 14.4946C19.2411 14.6437 19.3386 14.8367 19.37 15.0452C19.4014 15.2537 19.3652 15.4668 19.2667 15.6533L17.0267 17.8933C16.9957 17.9221 16.9714 17.9573 16.9552 17.9964C16.9391 18.0355 16.9317 18.0777 16.9334 18.1199V22.4933C16.9334 22.5817 16.9685 22.6665 17.031 22.729C17.0935 22.7915 17.1783 22.8266 17.2667 22.8266H19.1601H19.2801C20.8353 22.1966 22.1633 21.1103 23.0891 19.7109C24.0149 18.3114 24.4952 16.6644 24.4667 14.9866C24.4329 12.7442 23.5325 10.6018 21.9542 9.00858C20.3758 7.41532 18.2421 6.49481 16.0001 6.43994Z" fill="#4E87C4"/>
        <path d="M14.6667 1.33333V3.81333C14.6667 4.16696 14.8072 4.50609 15.0573 4.75614C15.3073 5.00619 15.6465 5.14667 16.0001 5.14667C16.3537 5.14667 16.6928 5.00619 16.9429 4.75614C17.1929 4.50609 17.3334 4.16696 17.3334 3.81333V1.33333C17.3334 0.979711 17.1929 0.640573 16.9429 0.390524C16.6928 0.140476 16.3537 0 16.0001 0C15.6465 0 15.3073 0.140476 15.0573 0.390524C14.8072 0.640573 14.6667 0.979711 14.6667 1.33333Z" fill="#4E87C4"/>
        <path d="M4.58666 12.9866H1.57332C1.2197 12.9866 0.880563 13.127 0.630515 13.3771C0.380466 13.6271 0.23999 13.9663 0.23999 14.3199C0.23999 14.6735 0.380466 15.0127 0.630515 15.2627C0.880563 15.5128 1.2197 15.6532 1.57332 15.6532H4.58666C4.94028 15.6532 5.27942 15.5128 5.52947 15.2627C5.77951 15.0127 5.91999 14.6735 5.91999 14.3199C5.91999 13.9663 5.77951 13.6271 5.52947 13.3771C5.27942 13.127 4.94028 12.9866 4.58666 12.9866Z" fill="#4E87C4"/>
        <path d="M8.39996 6.16002L5.90663 3.66669C5.65475 3.44413 5.3281 3.32491 4.99208 3.3329C4.65605 3.34088 4.33544 3.47549 4.09442 3.70977C3.8534 3.94405 3.70976 4.26071 3.69224 4.59637C3.67473 4.93204 3.78463 5.26193 3.99996 5.52002L6.54663 8.00002C6.79497 8.24635 7.13017 8.38521 7.47996 8.38669C7.65161 8.38868 7.82185 8.35538 7.9801 8.28887C8.13836 8.22236 8.28127 8.12404 8.39996 8.00002C8.63635 7.75205 8.76821 7.42261 8.76821 7.08002C8.76821 6.73743 8.63635 6.40799 8.39996 6.16002Z" fill="#4E87C4"/>
        <path d="M30.4267 12.9866H27.4134C27.0598 12.9866 26.7207 13.127 26.4706 13.3771C26.2206 13.6271 26.0801 13.9663 26.0801 14.3199C26.0801 14.6735 26.2206 15.0127 26.4706 15.2627C26.7207 15.5128 27.0598 15.6532 27.4134 15.6532H30.4267C30.7804 15.6532 31.1195 15.5128 31.3696 15.2627C31.6196 15.0127 31.7601 14.6735 31.7601 14.3199C31.7601 13.9663 31.6196 13.6271 31.3696 13.3771C31.1195 13.127 30.7804 12.9866 30.4267 12.9866Z" fill="#4E87C4"/>
        <path d="M27.9999 3.66665C27.7513 3.42633 27.4191 3.29199 27.0733 3.29199C26.7275 3.29199 26.3952 3.42633 26.1466 3.66665L23.5999 6.15998C23.3636 6.40795 23.2317 6.73739 23.2317 7.07998C23.2317 7.42257 23.3636 7.75201 23.5999 7.99998C23.7186 8.124 23.8615 8.22231 24.0198 8.28883C24.1781 8.35534 24.3483 8.38864 24.5199 8.38665C24.8697 8.38517 25.2049 8.2463 25.4533 7.99998L27.9999 5.51998C28.2403 5.27136 28.3746 4.9391 28.3746 4.59331C28.3746 4.24753 28.2403 3.91527 27.9999 3.66665Z" fill="#4E87C4"/>
        <path d="M19.2801 24.4534H12.7201C12.3664 24.4534 12.0273 24.5938 11.7772 24.8439C11.5272 25.0939 11.3867 25.4331 11.3867 25.7867C11.3867 26.1403 11.5272 26.4795 11.7772 26.7295C12.0273 26.9796 12.3664 27.12 12.7201 27.12H19.2801C19.6337 27.12 19.9728 26.9796 20.2229 26.7295C20.4729 26.4795 20.6134 26.1403 20.6134 25.7867C20.6134 25.4331 20.4729 25.0939 20.2229 24.8439C19.9728 24.5938 19.6337 24.4534 19.2801 24.4534Z" fill="#4E87C4"/>
        <path d="M19.2801 28.0667H12.7201C12.3664 28.0667 12.0273 28.2071 11.7772 28.4572C11.5272 28.7072 11.3867 29.0464 11.3867 29.4C11.3867 29.7536 11.5272 30.0927 11.7772 30.3428C12.0273 30.5928 12.3664 30.7333 12.7201 30.7333H14.3867C14.4641 30.7342 14.5389 30.7609 14.5993 30.8093C14.6597 30.8576 14.7022 30.9247 14.7201 31C14.8008 31.2769 14.9693 31.5202 15.2001 31.6933C15.4308 31.8664 15.7116 31.96 16.0001 31.96C16.2885 31.96 16.5693 31.8664 16.8001 31.6933C17.0308 31.5202 17.1993 31.2769 17.2801 31C17.2979 30.9247 17.3404 30.8576 17.4008 30.8093C17.4612 30.7609 17.536 30.7342 17.6134 30.7333H19.2801C19.6337 30.7333 19.9728 30.5928 20.2229 30.3428C20.4729 30.0927 20.6134 29.7536 20.6134 29.4C20.6134 29.0464 20.4729 28.7072 20.2229 28.4572C19.9728 28.2071 19.6337 28.0667 19.2801 28.0667Z" fill="#4E87C4"/>
    </g>
    <defs>
        <clipPath id="clip0_560_579">
            <rect width="32" height="32" fill="white"/>
        </clipPath>
    </defs>
</svg>