<svg width="32" height="32" viewBox="0 0 32 32" fill="none" xmlns="http://www.w3.org/2000/svg">
    <g clip-path="url(#clip0_560_622)">
        <path fill-rule="evenodd" clip-rule="evenodd" d="M1 15.6931L4.17333 13.0264L5.42667 8.43971C5.66595 7.56126 6.18681 6.78557 6.90935 6.23162C7.63189 5.67766 8.51621 5.37605 9.42667 5.37305H19.5733C20.3773 5.37299 21.1641 5.60595 21.8385 6.04371C22.5129 6.48149 23.046 7.10531 23.3733 7.83971L25.7333 13.053L30.5733 15.7197C31.008 15.9612 31.3699 16.3151 31.6208 16.7443C31.8719 17.1736 32.0028 17.6624 32 18.1597V20.7064C32 21.0717 31.9279 21.4335 31.7876 21.7708C31.6475 22.1081 31.442 22.4144 31.1831 22.6721C30.924 22.9299 30.6168 23.1339 30.2788 23.2724C29.9407 23.4111 29.5787 23.4815 29.2133 23.4797H27.4933C27.4933 22.3057 27.0269 21.1797 26.1968 20.3496C25.3667 19.5195 24.2407 19.0531 23.0667 19.0531C21.8927 19.0531 20.7667 19.5195 19.9365 20.3496C19.1064 21.1797 18.64 22.3057 18.64 23.4797H12.3867C12.3867 22.3057 11.9203 21.1797 11.0901 20.3496C10.26 19.5195 9.13403 19.0531 7.96 19.0531C6.78597 19.0531 5.66004 19.5195 4.82988 20.3496C3.99971 21.1797 3.53333 22.3057 3.53333 23.4797H2.78667C2.42135 23.4815 2.05928 23.4111 1.72127 23.2724C1.38324 23.1339 1.07594 22.9299 0.816999 22.6721C0.558057 22.4144 0.352583 22.1081 0.212377 21.7708C0.0721715 21.4335 -5.08573e-06 21.0717 2.68774e-10 20.7064V17.8264C0.00166321 17.4195 0.0919901 17.0179 0.264692 16.6495C0.437393 16.2809 0.688319 15.9547 1 15.6931ZM16.7523 7.82417C17.2044 8.14118 17.3141 8.76478 16.9971 9.21702L14.9632 12.1184H17.7468C18.1199 12.1184 18.4619 12.326 18.634 12.657C18.8061 12.9879 18.7797 13.3872 18.5656 13.6925L15.4284 18.1663C15.1113 18.6184 14.4877 18.7279 14.0355 18.4108C13.5833 18.0937 13.4737 17.4701 13.7909 17.0179L15.8241 14.1184H13.0411C12.6681 14.1184 12.3261 13.9108 12.1539 13.58C11.9818 13.249 12.0081 12.8499 12.2222 12.5444L15.3593 8.06902C15.6764 7.61678 16.3 7.50715 16.7523 7.82417ZM4.86723 23.4797C4.86723 22.6593 5.19313 21.8725 5.77324 21.2924C6.35336 20.7123 7.14016 20.3864 7.96056 20.3864C8.78096 20.3864 9.56776 20.7123 10.1479 21.2924C10.728 21.8725 11.0539 22.6593 11.0539 23.4797C11.0647 24.1025 10.8873 24.714 10.5448 25.2343C10.2024 25.7545 9.71081 26.1593 9.13449 26.3956C8.55817 26.6319 7.92396 26.6887 7.31483 26.5585C6.70569 26.4285 6.15003 26.1175 5.72056 25.6664C5.5992 25.5467 5.48773 25.4173 5.38723 25.2797C5.03117 24.7483 4.84943 24.1191 4.86723 23.4797ZM23.0671 26.5731C22.2512 26.566 21.4713 26.2369 20.8969 25.6576C20.3225 25.0783 20.0003 24.2955 20.0004 23.4797C20.0004 23.0735 20.0804 22.6712 20.2359 22.2959C20.3912 21.9207 20.6191 21.5796 20.9064 21.2924C21.1936 21.0051 21.5347 20.7773 21.9099 20.6219C22.2852 20.4664 22.6875 20.3864 23.0937 20.3864C23.4999 20.3864 23.9021 20.4664 24.2775 20.6219C24.6528 20.7773 24.9937 21.0051 25.2809 21.2924C25.5683 21.5796 25.7961 21.9207 25.9516 22.2959C26.1069 22.6712 26.1871 23.0735 26.1871 23.4797C26.1871 23.8881 26.1061 24.2925 25.9491 24.6696C25.7919 25.0467 25.5616 25.3889 25.2716 25.6765C24.9815 25.9641 24.6373 26.1913 24.2589 26.3452C23.8805 26.4991 23.4755 26.5765 23.0671 26.5731Z" fill="#4E87C4"/>
    </g>
    <defs>
        <clipPath id="clip0_560_622">
            <rect width="32" height="32" fill="white"/>
        </clipPath>
    </defs>
</svg>
