<svg width="16" height="16" viewBox="0 0 16 16" fill="none" xmlns="http://www.w3.org/2000/svg">
    <g clip-path="url(#clip0_560_851)">
        <path d="M15.58 0.193299C15.4738 0.116068 15.3534 0.0606396 15.2257 0.0302182C15.098 -0.000203215 14.9656 -0.00501443 14.836 0.0160627C14.7065 0.0371397 14.5824 0.0836871 14.4709 0.153014C14.3594 0.222341 14.2628 0.313073 14.1866 0.419966L4.83329 13.4666L1.70662 10.34C1.51706 10.1633 1.26633 10.0672 1.00726 10.0717C0.748193 10.0763 0.501013 10.1813 0.317796 10.3645C0.134578 10.5477 0.0296291 10.7949 0.0250581 11.0539C0.0204872 11.313 0.116651 11.5637 0.293291 11.7533L4.24662 15.7133C4.35094 15.8127 4.47514 15.8889 4.61104 15.9369C4.74695 15.9848 4.89147 16.0034 5.03508 15.9914C5.17869 15.9795 5.31814 15.9372 5.44424 15.8674C5.57033 15.7977 5.68021 15.702 5.76662 15.5866L15.8133 1.58663C15.8902 1.48009 15.9452 1.35935 15.9751 1.2314C16.005 1.10345 16.0092 0.970843 15.9875 0.841253C15.9658 0.711662 15.9186 0.587665 15.8487 0.476441C15.7787 0.365218 15.6874 0.26898 15.58 0.193299Z" fill="#4E87C4"/>
    </g>
    <defs>
        <clipPath id="clip0_560_851">
            <rect width="16" height="16" fill="white"/>
        </clipPath>
    </defs>
</svg>
