<svg width="16" height="16" viewBox="0 0 16 16" fill="none" xmlns="http://www.w3.org/2000/svg">
    <path fill-rule="evenodd" clip-rule="evenodd" d="M7.491 6.91273L9.1162 5.94579C9.4384 5.74923 9.85253 5.79376 10.1255 6.05433L13.4773 9.294C13.7297 9.53787 14.1279 9.5444 14.3881 9.30887L14.6293 9.09053C14.6354 9.085 14.6414 9.07927 14.6473 9.0734C16.5807 7.13993 16.0949 4.32571 14.5314 2.76699C13.7377 1.97569 12.6428 1.47591 11.4054 1.56367C10.2925 1.6426 9.12553 2.19189 8.00493 3.3188C7.87487 3.4505 7.752 3.58039 7.64013 3.70685L6.15362 5.19307C5.70585 5.64076 5.72866 6.37342 6.20343 6.7924C6.56093 7.10787 7.0812 7.15647 7.491 6.91273ZM12.6543 10.8783C12.9403 10.6195 12.9476 10.1727 12.6703 9.90467L9.89233 7.21967C9.67607 7.01067 9.3466 6.97233 9.08813 7.12607L8.00227 7.77213C7.2192 8.238 6.22495 8.14507 5.54175 7.5422C4.63449 6.74153 4.59089 5.34144 5.44657 4.4859L6.91207 3.02067C7.08973 2.82129 7.0698 2.50949 6.84633 2.36331C6.09393 1.87113 5.33603 1.61378 4.60158 1.56056C3.36295 1.47081 2.26579 1.96777 1.47018 2.75778C-0.0981706 4.31508 -0.581701 7.1296 1.36213 9.07347C1.36796 9.07927 1.37392 9.08493 1.38002 9.09047L6.77287 13.9753C7.21133 14.3725 7.794 14.5203 8.33987 14.4189C8.75047 14.3425 8.79347 13.8392 8.49093 13.5513L6.62792 11.7779C6.42791 11.5875 6.42011 11.271 6.6105 11.0709C6.80087 10.8709 7.1174 10.8631 7.3174 11.0535L9.37653 13.0136C9.62933 13.2543 10.025 13.2591 10.2837 13.0248L10.419 12.9023C10.7063 12.6421 10.7119 12.1925 10.4311 11.9253L8.49253 10.0799C8.29247 9.88953 8.28467 9.57307 8.47507 9.37307C8.66547 9.173 8.98193 9.1652 9.182 9.3556L11.2459 11.3203C11.4987 11.5609 11.8944 11.5659 12.1531 11.3315L12.5212 10.9981C12.5271 10.9933 12.5328 10.9883 12.5385 10.9831L12.6543 10.8783Z" fill="#4E87C4"/>
</svg>
