<svg width="16" height="16" viewBox="0 0 16 16" fill="none" xmlns="http://www.w3.org/2000/svg">
    <g clip-path="url(#clip0_173_524)">
        <path d="M15.3333 16C15.5101 16 15.6797 15.9298 15.8047 15.8047C15.9298 15.6797 16 15.5101 16 15.3333C16 15.2449 15.9649 15.1601 15.9024 15.0976C15.8399 15.0351 15.7551 15 15.6667 15H9.66667C9.57826 15 9.49348 14.9649 9.43096 14.9024C9.36845 14.8399 9.33333 14.7551 9.33333 14.6667C9.33333 14.5783 9.36845 14.4935 9.43096 14.431C9.49348 14.3685 9.57826 14.3333 9.66667 14.3333H15.6667C15.7551 14.3333 15.8399 14.2982 15.9024 14.2357C15.9649 14.1732 16 14.0884 16 14V13.6667C16 13.5783 15.9649 13.4935 15.9024 13.431C15.8399 13.3685 15.7551 13.3333 15.6667 13.3333H9.66667C9.57826 13.3333 9.49348 13.2982 9.43096 13.2357C9.36845 13.1732 9.33333 13.0884 9.33333 13C9.33333 12.9116 9.36845 12.8268 9.43096 12.7643C9.49348 12.7018 9.57826 12.6667 9.66667 12.6667H15.6667C15.7551 12.6667 15.8399 12.6315 15.9024 12.569C15.9649 12.5065 16 12.4217 16 12.3333V12C16.0011 11.9416 15.9861 11.8839 15.9567 11.8334C15.9273 11.7829 15.8846 11.7413 15.8333 11.7133C15.7829 11.6827 15.7411 11.6396 15.7119 11.5883C15.6827 11.537 15.6672 11.479 15.6667 11.42V0.666667C15.6667 0.489856 15.5964 0.320286 15.4714 0.195262C15.3464 0.0702379 15.1768 0 15 0L10.6667 0C10.5783 0 10.4935 0.0351189 10.431 0.0976311C10.3685 0.160143 10.3333 0.244928 10.3333 0.333333V11.3333C10.3333 11.4217 10.2982 11.5065 10.2357 11.569C10.1732 11.6315 10.0884 11.6667 10 11.6667H9.66667C9.57826 11.6667 9.49348 11.6315 9.43096 11.569C9.36845 11.5065 9.33333 11.4217 9.33333 11.3333V0.333333C9.33333 0.289559 9.32471 0.246214 9.30796 0.205772C9.29121 0.16533 9.26665 0.128584 9.2357 0.0976311C9.20475 0.0666782 9.168 0.0421251 9.12756 0.0253735C9.08712 0.00862192 9.04377 0 9 0L1 0C0.734784 0 0.48043 0.105357 0.292893 0.292893C0.105357 0.48043 0 0.734784 0 1L0 15C0 15.2652 0.105357 15.5196 0.292893 15.7071C0.48043 15.8946 0.734784 16 1 16H15.3333ZM13 1.66667C13.2637 1.66667 13.5215 1.74487 13.7408 1.89137C13.96 2.03788 14.1309 2.24612 14.2318 2.48976C14.3328 2.73339 14.3592 3.00148 14.3077 3.26012C14.2563 3.51876 14.1293 3.75634 13.9428 3.94281C13.7563 4.12928 13.5188 4.25627 13.2601 4.30771C13.0015 4.35916 12.7334 4.33276 12.4898 4.23184C12.2461 4.13092 12.0379 3.96003 11.8914 3.74076C11.7449 3.52149 11.6667 3.26371 11.6667 3C11.6667 2.64638 11.8071 2.30724 12.0572 2.05719C12.3072 1.80714 12.6464 1.66667 13 1.66667ZM11.6667 9.66667C11.6667 9.31304 11.8071 8.97391 12.0572 8.72386C12.3072 8.47381 12.6464 8.33333 13 8.33333C13.3536 8.33333 13.6928 8.47381 13.9428 8.72386C14.1929 8.97391 14.3333 9.31304 14.3333 9.66667V11.3333C14.3333 11.3771 14.3247 11.4205 14.308 11.4609C14.2912 11.5013 14.2667 11.5381 14.2357 11.569C14.2048 11.6 14.168 11.6245 14.1276 11.6413C14.0871 11.658 14.0438 11.6667 14 11.6667H12C11.9116 11.6667 11.8268 11.6315 11.7643 11.569C11.7018 11.5065 11.6667 11.4217 11.6667 11.3333V9.66667ZM3.66667 12.6667C3.66667 12.7551 3.63155 12.8399 3.56904 12.9024C3.50652 12.9649 3.42174 13 3.33333 13H1.66667C1.57826 13 1.49348 12.9649 1.43096 12.9024C1.36845 12.8399 1.33333 12.7551 1.33333 12.6667V10.5C1.33333 10.1906 1.45625 9.89384 1.67504 9.67504C1.89383 9.45625 2.19058 9.33333 2.5 9.33333C2.80942 9.33333 3.10617 9.45625 3.32496 9.67504C3.54375 9.89384 3.66667 10.1906 3.66667 10.5V12.6667ZM3.66667 6C3.66667 6.08841 3.63155 6.17319 3.56904 6.2357C3.50652 6.29821 3.42174 6.33333 3.33333 6.33333H1.66667C1.57826 6.33333 1.49348 6.29821 1.43096 6.2357C1.36845 6.17319 1.33333 6.08841 1.33333 6V3.83333C1.33333 3.52391 1.45625 3.22717 1.67504 3.00838C1.89383 2.78958 2.19058 2.66667 2.5 2.66667C2.80942 2.66667 3.10617 2.78958 3.32496 3.00838C3.54375 3.22717 3.66667 3.52391 3.66667 3.83333V6ZM8 12.6667C8 12.7551 7.96488 12.8399 7.90237 12.9024C7.83986 12.9649 7.75507 13 7.66667 13H6C5.91159 13 5.82681 12.9649 5.7643 12.9024C5.70179 12.8399 5.66667 12.7551 5.66667 12.6667V10.5C5.66667 10.1906 5.78958 9.89384 6.00838 9.67504C6.22717 9.45625 6.52391 9.33333 6.83333 9.33333C7.14275 9.33333 7.4395 9.45625 7.65829 9.67504C7.87708 9.89384 8 10.1906 8 10.5V12.6667ZM8 6C8 6.08841 7.96488 6.17319 7.90237 6.2357C7.83986 6.29821 7.75507 6.33333 7.66667 6.33333H6C5.91159 6.33333 5.82681 6.29821 5.7643 6.2357C5.70179 6.17319 5.66667 6.08841 5.66667 6V3.83333C5.66667 3.52391 5.78958 3.22717 6.00838 3.00838C6.22717 2.78958 6.52391 2.66667 6.83333 2.66667C7.14275 2.66667 7.4395 2.78958 7.65829 3.00838C7.87708 3.22717 8 3.52391 8 3.83333V6Z" fill="#4E87C4"/>
    </g>
    <defs>
        <clipPath id="clip0_173_524">
            <rect width="16" height="16" fill="white"/>
        </clipPath>
    </defs>
</svg>
