<svg width="32" height="32" viewBox="0 0 32 32" fill="none" xmlns="http://www.w3.org/2000/svg">
    <g clip-path="url(#clip0_560_655)">
        <path d="M30 6H2C1.46957 6 0.960859 6.21071 0.585786 6.58579C0.210714 6.96086 0 7.46957 0 8L0 11.3333C0 11.8638 0.210714 12.3725 0.585786 12.7475C0.960859 13.1226 1.46957 13.3333 2 13.3333H30C30.5304 13.3333 31.0391 13.1226 31.4142 12.7475C31.7893 12.3725 32 11.8638 32 11.3333V8C32 7.46957 31.7893 6.96086 31.4142 6.58579C31.0391 6.21071 30.5304 6 30 6ZM4.33333 9.66667C4.33333 9.33703 4.43108 9.0148 4.61422 8.74072C4.79735 8.46663 5.05765 8.25301 5.36219 8.12687C5.66674 8.00072 6.00185 7.96772 6.32515 8.03202C6.64845 8.09633 6.94542 8.25507 7.17851 8.48816C7.4116 8.72124 7.57033 9.01821 7.63464 9.34152C7.69895 9.66482 7.66595 9.99993 7.5398 10.3045C7.41365 10.609 7.20003 10.8693 6.92595 11.0524C6.65187 11.2356 6.32964 11.3333 6 11.3333C5.55797 11.3333 5.13405 11.1577 4.82149 10.8452C4.50893 10.5326 4.33333 10.1087 4.33333 9.66667ZM11.3333 11.3333C11.0037 11.3333 10.6815 11.2356 10.4074 11.0524C10.1333 10.8693 9.91968 10.609 9.79353 10.3045C9.66739 9.99993 9.63438 9.66482 9.69869 9.34152C9.763 9.01821 9.92173 8.72124 10.1548 8.48816C10.3879 8.25507 10.6849 8.09633 11.0082 8.03202C11.3315 7.96772 11.6666 8.00072 11.9711 8.12687C12.2757 8.25301 12.536 8.46663 12.7191 8.74072C12.9023 9.0148 13 9.33703 13 9.66667C13 10.1087 12.8244 10.5326 12.5118 10.8452C12.1993 11.1577 11.7754 11.3333 11.3333 11.3333Z" fill="#4E87C4"/>
        <path d="M30.2933 2.73333L25.1067 0.146667C24.9209 0.0514882 24.7154 0.00125144 24.5067 0L7.49332 0C7.2846 0.00125144 7.07908 0.0514882 6.89332 0.146667L1.70665 2.73333C1.57063 2.79921 1.46102 2.90935 1.39581 3.0457C1.3306 3.18205 1.31366 3.3365 1.34775 3.48374C1.38185 3.63099 1.46497 3.76227 1.58348 3.85607C1.70199 3.94987 1.84885 4.00062 1.99999 4H30C30.1768 4.0389 30.3618 4.00597 30.5143 3.90845C30.6669 3.81093 30.7744 3.65681 30.8133 3.48C30.8522 3.30319 30.8193 3.11817 30.7218 2.96564C30.6242 2.81311 30.4701 2.70557 30.2933 2.66667V2.73333Z" fill="#4E87C4"/>
        <path d="M30 15.3333H2C1.46957 15.3333 0.960859 15.544 0.585786 15.919C0.210714 16.2941 0 16.8028 0 17.3333L0 20.6666C0 21.197 0.210714 21.7057 0.585786 22.0808C0.960859 22.4559 1.46957 22.6666 2 22.6666H30C30.5304 22.6666 31.0391 22.4559 31.4142 22.0808C31.7893 21.7057 32 21.197 32 20.6666V17.3333C32 16.8028 31.7893 16.2941 31.4142 15.919C31.0391 15.544 30.5304 15.3333 30 15.3333ZM4.33333 18.9999C4.33333 18.6703 4.43108 18.348 4.61422 18.074C4.79735 17.7999 5.05765 17.5863 5.36219 17.4601C5.66674 17.334 6.00185 17.301 6.32515 17.3653C6.64845 17.4296 6.94542 17.5883 7.17851 17.8214C7.4116 18.0545 7.57033 18.3515 7.63464 18.6748C7.69895 18.9981 7.66595 19.3332 7.5398 19.6377C7.41365 19.9423 7.20003 20.2026 6.92595 20.3857C6.65187 20.5688 6.32964 20.6666 6 20.6666C5.55797 20.6666 5.13405 20.491 4.82149 20.1784C4.50893 19.8659 4.33333 19.4419 4.33333 18.9999ZM11.3333 20.6666C11.0037 20.6666 10.6815 20.5688 10.4074 20.3857C10.1333 20.2026 9.91968 19.9423 9.79353 19.6377C9.66739 19.3332 9.63438 18.9981 9.69869 18.6748C9.763 18.3515 9.92173 18.0545 10.1548 17.8214C10.3879 17.5883 10.6849 17.4296 11.0082 17.3653C11.3315 17.301 11.6666 17.334 11.9711 17.4601C12.2757 17.5863 12.536 17.7999 12.7191 18.074C12.9023 18.348 13 18.6703 13 18.9999C13 19.4419 12.8244 19.8659 12.5118 20.1784C12.1993 20.491 11.7754 20.6666 11.3333 20.6666Z" fill="#4E87C4"/>
        <path d="M30 24.6667H2C1.46957 24.6667 0.960859 24.8775 0.585786 25.2525C0.210714 25.6276 0 26.1363 0 26.6667L0 30.0001C0 30.2627 0.0517315 30.5228 0.152241 30.7654C0.25275 31.0081 0.400069 31.2286 0.585786 31.4143C0.771504 31.6 0.991982 31.7473 1.23463 31.8478C1.47728 31.9484 1.73736 32.0001 2 32.0001H30C30.5304 32.0001 31.0391 31.7894 31.4142 31.4143C31.7893 31.0392 32 30.5305 32 30.0001V26.6667C32 26.1363 31.7893 25.6276 31.4142 25.2525C31.0391 24.8775 30.5304 24.6667 30 24.6667ZM4.33333 28.3334C4.33333 28.0038 4.43108 27.6815 4.61422 27.4075C4.79735 27.1334 5.05765 26.9198 5.36219 26.7936C5.66674 26.6675 6.00185 26.6345 6.32515 26.6988C6.64845 26.7631 6.94542 26.9218 7.17851 27.1549C7.4116 27.388 7.57033 27.685 7.63464 28.0083C7.69895 28.3316 7.66595 28.6667 7.5398 28.9712C7.41365 29.2758 7.20003 29.5361 6.92595 29.7192C6.65187 29.9023 6.32964 30.0001 6 30.0001C5.55797 30.0001 5.13405 29.8245 4.82149 29.5119C4.50893 29.1994 4.33333 28.7754 4.33333 28.3334ZM11.3333 30.0001C11.0037 30.0001 10.6815 29.9023 10.4074 29.7192C10.1333 29.5361 9.91968 29.2758 9.79353 28.9712C9.66739 28.6667 9.63438 28.3316 9.69869 28.0083C9.763 27.685 9.92173 27.388 10.1548 27.1549C10.3879 26.9218 10.6849 26.7631 11.0082 26.6988C11.3315 26.6345 11.6666 26.6675 11.9711 26.7936C12.2757 26.9198 12.536 27.1334 12.7191 27.4075C12.9023 27.6815 13 28.0038 13 28.3334C13 28.7754 12.8244 29.1994 12.5118 29.5119C12.1993 29.8245 11.7754 30.0001 11.3333 30.0001Z" fill="#4E87C4"/>
    </g>
    <defs>
        <clipPath id="clip0_560_655">
            <rect width="32" height="32" fill="white"/>
        </clipPath>
    </defs>
</svg>
