<svg width="32" height="32" viewBox="0 0 32 32" fill="none" xmlns="http://www.w3.org/2000/svg">
    <g clip-path="url(#clip0_560_354)">
        <path d="M12.4533 21.4666C12.5546 21.493 12.6608 21.4947 12.7629 21.4715C12.865 21.4483 12.9601 21.4009 13.04 21.3333C13.1238 21.2712 13.1925 21.1909 13.2409 21.0986C13.2894 21.0063 13.3164 20.9042 13.32 20.7999C13.4006 18.8906 13.8535 17.0155 14.6533 15.2799C14.7067 15.187 14.7359 15.0821 14.7383 14.975C14.7406 14.8678 14.716 14.7618 14.6667 14.6666C13.5682 13.0226 12.0806 11.6755 10.336 10.745C8.59136 9.81456 6.64388 9.32961 4.66667 9.33327C4.48986 9.33327 4.32029 9.40351 4.19526 9.52854C4.07024 9.65356 4 9.82313 4 9.99994C3.99941 12.5635 4.81982 15.0599 6.34102 17.1234C7.86223 19.1869 10.0043 20.7089 12.4533 21.4666Z" fill="#4E87C4"/>
        <path d="M12 9.41332C13.4357 10.2951 14.7005 11.4289 15.7334 12.76C15.7628 12.8031 15.8028 12.8379 15.8494 12.8612C15.8961 12.8846 15.9479 12.8956 16 12.8933C16.0501 12.8946 16.0997 12.883 16.1441 12.8597C16.1884 12.8363 16.2261 12.802 16.2534 12.76C17.2976 11.4308 18.5654 10.2938 20 9.39999C20.0998 9.33623 20.1809 9.24704 20.2348 9.14159C20.2887 9.03613 20.3135 8.91822 20.3067 8.79999C20.1397 5.55188 18.7711 2.48187 16.4667 0.186656C16.3398 0.0636572 16.1701 -0.00512695 15.9934 -0.00512695C15.8167 -0.00512695 15.6469 0.0636572 15.52 0.186656C13.2195 2.48321 11.8555 5.5534 11.6934 8.79999C11.6869 8.92004 11.7118 9.03969 11.7656 9.14722C11.8193 9.25475 11.9001 9.34645 12 9.41332Z" fill="#4E87C4"/>
        <path d="M15.3334 21.3333V24.3333C15.3334 24.5985 15.4387 24.8528 15.6263 25.0404C15.8138 25.2279 16.0682 25.3333 16.3334 25.3333C16.5986 25.3333 16.8529 25.2279 17.0405 25.0404C17.228 24.8528 17.3334 24.5985 17.3334 24.3333V22.5066C17.3345 22.3491 17.3913 22.1971 17.4939 22.0775C17.5964 21.9579 17.7379 21.8784 17.8934 21.8533C20.7127 21.4028 23.279 19.9619 25.1314 17.7893C26.9838 15.6168 28.0009 12.855 28 9.99992C28 9.82311 27.9298 9.65354 27.8048 9.52851C27.6798 9.40349 27.5102 9.33325 27.3334 9.33325C24.1508 9.33325 21.0985 10.5975 18.8481 12.848C16.5977 15.0984 15.3334 18.1507 15.3334 21.3333Z" fill="#4E87C4"/>
        <path d="M30.6667 29.3334C29.8958 29.291 29.1454 29.0703 28.4744 28.6885C27.8034 28.3067 27.2302 27.7744 26.8 27.1334C26.6667 26.9934 26.5064 26.882 26.3288 26.8058C26.1512 26.7297 25.9599 26.6904 25.7667 26.6904C25.5734 26.6904 25.3822 26.7297 25.2045 26.8058C25.0269 26.882 24.8666 26.9934 24.7333 27.1334C24.3065 27.7717 23.7377 28.3024 23.0715 28.6841C22.4053 29.0658 21.6598 29.288 20.8933 29.3334C20.1207 29.291 19.3683 29.0704 18.6952 28.6887C18.0221 28.307 17.4464 27.7747 17.0133 27.1334C16.8813 26.9938 16.7221 26.8826 16.5456 26.8066C16.369 26.7306 16.1789 26.6914 15.9867 26.6914C15.7945 26.6914 15.6043 26.7306 15.4278 26.8066C15.2513 26.8826 15.0921 26.9938 14.96 27.1334C14.5304 27.772 13.9591 28.3027 13.2907 28.6843C12.6224 29.0659 11.8749 29.288 11.1067 29.3334C10.3358 29.291 9.58539 29.0703 8.91441 28.6885C8.24342 28.3067 7.67024 27.7744 7.24 27.1334C7.10675 26.9934 6.94644 26.882 6.76881 26.8058C6.59118 26.7297 6.39993 26.6904 6.20667 26.6904C6.0134 26.6904 5.82215 26.7297 5.64452 26.8058C5.46689 26.882 5.30659 26.9934 5.17333 27.1334C4.74652 27.7717 4.17773 28.3024 3.51153 28.6841C2.84532 29.0658 2.09979 29.288 1.33333 29.3334C0.979711 29.3334 0.640573 29.4739 0.390524 29.724C0.140476 29.974 0 30.3131 0 30.6668C0 31.0204 0.140476 31.3595 0.390524 31.6096C0.640573 31.8596 0.979711 32.0001 1.33333 32.0001C2.97137 31.9972 4.55484 31.4111 5.8 30.3468C5.91517 30.2428 6.06482 30.1852 6.22 30.1852C6.37518 30.1852 6.52483 30.2428 6.64 30.3468C7.88424 31.4124 9.46847 31.9981 11.1067 31.9981C12.7449 31.9981 14.3291 31.4124 15.5733 30.3468C15.692 30.2445 15.8434 30.1882 16 30.1882C16.1566 30.1882 16.308 30.2445 16.4267 30.3468C17.6676 31.414 19.25 32.0008 20.8867 32.0008C22.5233 32.0008 24.1058 31.414 25.3467 30.3468C25.4653 30.2445 25.6167 30.1882 25.7733 30.1882C25.93 30.1882 26.0814 30.2445 26.2 30.3468C27.444 31.4131 29.0282 31.9995 30.6667 32.0001C31.0203 32.0001 31.3594 31.8596 31.6095 31.6096C31.8595 31.3595 32 31.0204 32 30.6668C32 30.3131 31.8595 29.974 31.6095 29.724C31.3594 29.4739 31.0203 29.3334 30.6667 29.3334Z" fill="#4E87C4"/>
    </g>
    <defs>
        <clipPath id="clip0_560_354">
            <rect width="32" height="32" fill="white"/>
        </clipPath>
    </defs>
</svg>
