<svg width="33" height="26" viewBox="0 0 33 26" fill="none" xmlns="http://www.w3.org/2000/svg">
    <path d="M32.1608 1.22012C32.1242 0.997478 32.0317 0.787778 31.8919 0.610686C31.7521 0.433593 31.5696 0.294912 31.3615 0.207647C31.1475 0.110301 30.9114 0.0713482 30.6775 0.0947467C30.4435 0.118145 30.2199 0.203061 30.0293 0.340867C26.9705 2.22884 23.416 3.15689 19.8246 3.00527C11.6449 2.93866 8.20785 6.33577 8.14124 6.33577C6.79022 7.33739 5.69168 8.64057 4.93308 10.1416C4.17449 11.6426 3.77678 13.3 3.77162 14.9818C3.75189 16.3862 4.00995 17.7806 4.53097 19.0849C4.57698 19.2033 4.58888 19.3322 4.56534 19.457C4.54179 19.5818 4.48373 19.6975 4.39775 19.791L0.894063 23.6544C0.769198 23.7782 0.67009 23.9256 0.602456 24.0879C0.534821 24.2503 0.5 24.4244 0.5 24.6003C0.5 24.7761 0.534821 24.9503 0.602456 25.1126C0.67009 25.2749 0.769198 25.4223 0.894063 25.5461C1.12899 25.7691 1.43709 25.8988 1.76075 25.9111C2.08441 25.9234 2.40145 25.8173 2.65257 25.6127C4.99724 23.5212 8.72741 17.2598 19.1852 12.8769C19.3479 12.8087 19.5224 12.7731 19.6989 12.7724C19.8753 12.7716 20.0501 12.8056 20.2134 12.8724C20.3767 12.9392 20.5253 13.0375 20.6506 13.1617C20.7759 13.2859 20.8755 13.4336 20.9437 13.5963C21.0119 13.759 21.0474 13.9335 21.0482 14.1099C21.049 14.2864 21.015 14.4612 20.9482 14.6245C20.8814 14.7878 20.7831 14.9363 20.6589 15.0616C20.5347 15.1869 20.387 15.2866 20.2243 15.3548C16.0378 17.0636 12.2235 19.5703 8.99385 22.7352L8.67412 23.0682C8.60613 23.148 8.55753 23.2424 8.5321 23.3441C8.50668 23.4458 8.50513 23.552 8.52758 23.6544C8.54155 23.7532 8.57754 23.8476 8.63288 23.9306C8.68822 24.0136 8.7615 24.0831 8.84731 24.134C10.5483 25.1993 12.5155 25.7627 14.5225 25.7593C17.2197 25.7059 19.8612 24.9826 22.2093 23.6544C33.8394 17.2199 32.7736 4.85703 32.1608 1.22012Z" fill="#4E87C4"/>
</svg>