<svg width="32" height="32" viewBox="0 0 32 32" fill="none" xmlns="http://www.w3.org/2000/svg">
    <g clip-path="url(#clip0_560_633)">
        <path d="M15.9999 5.42651C13.8903 5.42651 11.828 6.0521 10.0738 7.22417C8.31972 8.39624 6.95254 10.0621 6.14521 12.0112C5.33787 13.9603 5.12664 16.105 5.53821 18.1741C5.94979 20.2433 6.96569 22.1439 8.45745 23.6357C9.94921 25.1274 11.8498 26.1433 13.919 26.5549C15.9881 26.9665 18.1328 26.7552 20.0819 25.9479C22.031 25.1406 23.6969 23.7734 24.8689 22.0193C26.041 20.2651 26.6666 18.2028 26.6666 16.0932C26.6666 14.6924 26.3907 13.3054 25.8546 12.0112C25.3186 10.7171 24.5329 9.5412 23.5424 8.55071C22.5519 7.56022 21.376 6.77452 20.0819 6.23847C18.7877 5.70242 17.4007 5.42651 15.9999 5.42651ZM15.9999 24.0932C14.4177 24.0932 12.871 23.624 11.5554 22.7449C10.2398 21.8659 9.21439 20.6165 8.60889 19.1546C8.00339 17.6928 7.84496 16.0843 8.15364 14.5325C8.46232 12.9806 9.22425 11.5551 10.3431 10.4363C11.4619 9.31751 12.8874 8.55558 14.4392 8.2469C15.991 7.93822 17.5996 8.09664 19.0614 8.70214C20.5232 9.30765 21.7726 10.333 22.6517 11.6486C23.5307 12.9642 23.9999 14.5109 23.9999 16.0932C23.9999 18.2149 23.1571 20.2497 21.6568 21.75C20.1565 23.2503 18.1217 24.0932 15.9999 24.0932Z" fill="#4E87C4"/>
        <path d="M12.0132 16.0933C12.0132 17.1541 12.4346 18.1715 13.1848 18.9217C13.9349 19.6718 14.9523 20.0933 16.0132 20.0933C17.0741 20.0933 18.0915 19.6718 18.8416 18.9217C19.5918 18.1715 20.0132 17.1541 20.0132 16.0933C20.0132 15.0324 19.5918 14.015 18.8416 13.2648C18.0915 12.5147 17.0741 12.0933 16.0132 12.0933C14.9523 12.0933 13.9349 12.5147 13.1848 13.2648C12.4346 14.015 12.0132 15.0324 12.0132 16.0933Z" fill="#4E87C4"/>
        <path d="M12.1067 3.17324H12.4534C13.2015 2.93722 13.9689 2.76767 14.7467 2.66657C15.1004 2.63298 15.4261 2.46028 15.6524 2.18648C15.8787 1.91268 15.987 1.56019 15.9534 1.20657C15.9198 0.852948 15.7471 0.527155 15.4733 0.300861C15.1995 0.0745671 14.847 -0.0336905 14.4934 -9.64245e-05C13.5643 0.112683 12.6458 0.299952 11.7467 0.559904C11.3931 0.607643 11.0729 0.793902 10.8566 1.07771C10.6404 1.36151 10.5457 1.71961 10.5934 2.07324C10.6411 2.42686 10.8274 2.74703 11.1112 2.96333C11.395 3.17962 11.7531 3.27431 12.1067 3.22657V3.17324Z" fill="#4E87C4"/>
        <path d="M4.51985 8.17334C4.72238 8.17444 4.92249 8.12938 5.105 8.04159C5.28751 7.9538 5.44762 7.82558 5.57318 7.66668C6.05759 7.06204 6.59288 6.49999 7.17318 5.98668C7.4381 5.7531 7.59952 5.42396 7.62202 5.0715C7.64452 4.71903 7.52626 4.37204 7.29318 4.10668C7.05776 3.84366 6.72765 3.68474 6.37523 3.66474C6.02281 3.64475 5.67685 3.76531 5.41318 4.00001C4.71596 4.61356 4.06942 5.2824 3.47985 6.00001C3.36984 6.13722 3.28806 6.29483 3.23922 6.46378C3.19038 6.63273 3.17544 6.80966 3.19527 6.98441C3.2151 7.15915 3.2693 7.32824 3.35476 7.48195C3.44021 7.63566 3.55523 7.77094 3.69318 7.88001C3.92777 8.06823 4.2191 8.1716 4.51985 8.17334Z" fill="#4E87C4"/>
        <path d="M1.33329 16.6665C1.67566 16.6669 2.00507 16.5356 2.25329 16.2998C2.50151 16.064 2.64951 15.7418 2.66663 15.3998C2.7023 14.6235 2.8049 13.8518 2.97329 13.0931C3.0128 12.9224 3.01827 12.7456 2.98939 12.5727C2.9605 12.3999 2.89783 12.2345 2.80496 12.0859C2.71208 11.9373 2.59082 11.8084 2.44812 11.7067C2.30542 11.605 2.14407 11.5324 1.97329 11.4931C1.80166 11.4538 1.62393 11.4489 1.45038 11.4786C1.27682 11.5084 1.11088 11.5722 0.962117 11.6664C0.813358 11.7606 0.684735 11.8833 0.583671 12.0275C0.482607 12.1717 0.411105 12.3345 0.373292 12.5065C0.169652 13.414 0.0447438 14.3375 -4.11459e-05 15.2665C-0.00908378 15.4471 0.0187132 15.6277 0.0816589 15.7972C0.144605 15.9668 0.241383 16.1217 0.366107 16.2527C0.490831 16.3837 0.640893 16.4879 0.807165 16.559C0.973437 16.6301 1.15244 16.6667 1.33329 16.6665Z" fill="#4E87C4"/>
        <path d="M3.74651 21.3334C3.68284 21.1639 3.58534 21.0092 3.45994 20.8787C3.33455 20.7481 3.18389 20.6445 3.01714 20.5741C2.85039 20.5036 2.67105 20.4679 2.49004 20.469C2.30903 20.4702 2.13015 20.5081 1.9643 20.5806C1.79844 20.6531 1.64909 20.7587 1.52533 20.8908C1.40158 21.0228 1.30602 21.1788 1.24447 21.349C1.18293 21.5192 1.15669 21.7002 1.16736 21.8809C1.17802 22.0616 1.22537 22.2382 1.30651 22.4C1.67633 23.2562 2.12258 24.0773 2.63984 24.8534C2.73472 25.0027 2.85838 25.1317 3.00361 25.2328C3.14885 25.3339 3.31276 25.4051 3.48578 25.4422C3.6588 25.4793 3.83748 25.4816 4.0114 25.4489C4.18531 25.4163 4.35099 25.3493 4.49877 25.252C4.64655 25.1546 4.77347 25.0288 4.87215 24.882C4.97082 24.7351 5.03926 24.57 5.07349 24.3964C5.10772 24.2228 5.10704 24.0441 5.07151 23.8707C5.03597 23.6974 4.96628 23.5328 4.86651 23.3867C4.43563 22.7352 4.06095 22.0483 3.74651 21.3334Z" fill="#4E87C4"/>
        <path d="M11.3066 28.4933C10.5737 28.2235 9.86823 27.8842 9.1999 27.48C8.89518 27.3206 8.54066 27.2851 8.21038 27.3809C7.8801 27.4767 7.59961 27.6965 7.42751 27.9942C7.25541 28.2919 7.20501 28.6447 7.28682 28.9787C7.36864 29.3127 7.57635 29.6022 7.86657 29.7867C8.67172 30.2561 9.51464 30.6575 10.3866 30.9867C10.5344 31.0483 10.693 31.08 10.8532 31.08C11.169 31.0861 11.4767 30.9799 11.7215 30.7803C11.9663 30.5808 12.1324 30.3008 12.19 29.9902C12.2476 29.6796 12.1931 29.3587 12.0362 29.0846C11.8793 28.8105 11.6302 28.6009 11.3332 28.4933H11.3066Z" fill="#4E87C4"/>
        <path d="M19.5465 28.8665C18.7956 29.0709 18.0282 29.2092 17.2532 29.2798C16.8925 29.2904 16.5508 29.4439 16.3033 29.7064C16.0557 29.969 15.9226 30.3191 15.9332 30.6798C15.9438 31.0405 16.0973 31.3822 16.3598 31.6297C16.6224 31.8773 16.9725 32.0104 17.3332 31.9998H17.4665C18.3942 31.9045 19.3126 31.7351 20.2132 31.4931C20.5545 31.3994 20.8445 31.174 21.0195 30.8664C21.1946 30.5589 21.2403 30.1944 21.1465 29.8531C21.0528 29.5119 20.8274 29.2218 20.5198 29.0468C20.2123 28.8718 19.8478 28.8261 19.5065 28.9198L19.5465 28.8665Z" fill="#4E87C4"/>
        <path d="M26.4265 24.3333C25.9421 24.938 25.4068 25.5 24.8265 26.0133C24.5616 26.2469 24.4002 26.576 24.3777 26.9285C24.3552 27.281 24.4735 27.628 24.7065 27.8933C24.8315 28.0355 24.9853 28.1495 25.1577 28.2277C25.3301 28.3059 25.5172 28.3464 25.7065 28.3467C26.0306 28.3462 26.3435 28.2277 26.5865 28.0133C27.2843 27.3955 27.9309 26.7222 28.5199 26C28.6299 25.8628 28.7117 25.7052 28.7605 25.5362C28.8094 25.3673 28.8243 25.1903 28.8045 25.0156C28.7846 24.8408 28.7304 24.6718 28.645 24.518C28.5595 24.3643 28.4445 24.2291 28.3065 24.12C28.1693 24.01 28.0117 23.9282 27.8428 23.8794C27.6738 23.8305 27.4969 23.8156 27.3222 23.8354C27.1474 23.8552 26.9783 23.9094 26.8246 23.9949C26.6709 24.0803 26.5356 24.1954 26.4265 24.3333Z" fill="#4E87C4"/>
        <path d="M30.7332 15.3333C30.558 15.3243 30.3828 15.35 30.2176 15.4088C30.0524 15.4676 29.9004 15.5585 29.7704 15.6762C29.6403 15.7938 29.5348 15.936 29.4598 16.0945C29.3847 16.253 29.3417 16.4248 29.3332 16.6C29.2984 17.3763 29.1958 18.1481 29.0265 18.9066C28.987 19.0773 28.9815 19.2542 29.0104 19.427C29.0393 19.5999 29.102 19.7653 29.1949 19.9139C29.2877 20.0625 29.409 20.1913 29.5517 20.2931C29.6944 20.3948 29.8557 20.4673 30.0265 20.5066C30.1239 20.5192 30.2225 20.5192 30.3199 20.5066C30.6281 20.5142 30.9294 20.4146 31.1725 20.225C31.4156 20.0354 31.5855 19.7674 31.6532 19.4666C31.8463 18.567 31.9623 17.6526 31.9999 16.7333C32.0088 16.5581 31.9832 16.3829 31.9243 16.2177C31.8655 16.0525 31.7746 15.9005 31.657 15.7705C31.5393 15.6404 31.3972 15.5349 31.2386 15.4599C31.0801 15.3848 30.9084 15.3418 30.7332 15.3333Z" fill="#4E87C4"/>
        <path d="M28.2533 10.6666C28.3565 10.903 28.5261 11.1044 28.7414 11.2464C28.9568 11.3884 29.2087 11.4649 29.4667 11.4666C29.6495 11.4646 29.8304 11.4284 30 11.3599C30.3114 11.2144 30.5546 10.9543 30.6788 10.6338C30.803 10.3133 30.7987 9.95727 30.6667 9.63991C30.2968 8.78374 29.8506 7.96264 29.3333 7.18658C29.2385 7.03721 29.1148 6.90821 28.9696 6.80712C28.8243 6.70603 28.6604 6.63485 28.4874 6.59775C28.3144 6.56065 28.1357 6.55836 27.9618 6.59102C27.7879 6.62367 27.6222 6.69062 27.4744 6.78796C27.3266 6.8853 27.1997 7.01108 27.101 7.15798C27.0024 7.30487 26.9339 7.46993 26.8997 7.64355C26.8655 7.81716 26.8661 7.99586 26.9017 8.16921C26.9372 8.34256 27.0069 8.5071 27.1067 8.65325C27.5497 9.28788 27.9335 9.96181 28.2533 10.6666Z" fill="#4E87C4"/>
        <path d="M20.6932 3.50648C21.4238 3.78193 22.1287 4.12101 22.7999 4.51982C23.0018 4.63965 23.2318 4.70405 23.4666 4.70648C23.7641 4.71471 24.0559 4.62312 24.2953 4.44632C24.5348 4.26951 24.7082 4.01766 24.788 3.73087C24.8677 3.44409 24.8492 3.13886 24.7354 2.86381C24.6216 2.58876 24.419 2.35972 24.1599 2.21315C23.3547 1.74373 22.5118 1.34233 21.6399 1.01315C21.4762 0.95097 21.3018 0.921648 21.1268 0.92686C20.9517 0.932073 20.7794 0.971718 20.6197 1.04353C20.46 1.11534 20.316 1.21792 20.1959 1.3454C20.0758 1.47287 19.982 1.62276 19.9199 1.78648C19.8577 1.9502 19.8284 2.12456 19.8336 2.2996C19.8388 2.47465 19.8785 2.64695 19.9503 2.80668C20.0221 2.9664 20.1247 3.11041 20.2521 3.23048C20.3796 3.35056 20.5295 3.44434 20.6932 3.50648Z" fill="#4E87C4"/>
    </g>
    <defs>
        <clipPath id="clip0_560_633">
            <rect width="32" height="32" fill="white"/>
        </clipPath>
    </defs>
</svg>
