<svg width="32" height="32" viewBox="0 0 32 32" fill="none" xmlns="http://www.w3.org/2000/svg">
    <g clip-path="url(#clip0_560_696)">
        <path d="M28.7066 11C28.626 10.9673 28.5613 10.9044 28.5264 10.8246C28.4916 10.7449 28.4892 10.6547 28.52 10.5733C28.9172 9.58487 29.0155 8.50156 28.8027 7.45778C28.5898 6.41399 28.0752 5.45567 27.3226 4.70171C26.5701 3.94774 25.6127 3.43131 24.5694 3.2165C23.526 3.00168 22.4425 3.09793 21.4533 3.4933C21.4131 3.51095 21.3697 3.52047 21.3258 3.52131C21.2818 3.52214 21.2381 3.51428 21.1973 3.49817C21.1564 3.48206 21.1191 3.45802 21.0875 3.42744C21.0559 3.39685 21.0307 3.36033 21.0133 3.31996C20.5887 2.34329 19.888 1.51192 18.9974 0.927977C18.1068 0.344037 17.065 0.032959 16 0.032959C14.935 0.032959 13.8932 0.344037 13.0026 0.927977C12.1119 1.51192 11.4113 2.34329 10.9866 3.31996C10.9693 3.36033 10.944 3.39685 10.9125 3.42744C10.8809 3.45802 10.8436 3.48206 10.8027 3.49817C10.7618 3.51428 10.7181 3.52214 10.6742 3.52131C10.6302 3.52047 10.5869 3.51095 10.5466 3.4933C9.55747 3.09793 8.47398 3.00168 7.4306 3.2165C6.38722 3.43131 5.42987 3.94774 4.67732 4.70171C3.92478 5.45567 3.41016 6.41399 3.19731 7.45778C2.98446 8.50156 3.08275 9.58487 3.47998 10.5733C3.51072 10.6547 3.5084 10.7449 3.47352 10.8246C3.43864 10.9044 3.37396 10.9673 3.29331 11C2.31485 11.4194 1.48095 12.1167 0.894942 13.0054C0.308937 13.8942 -0.00341797 14.9354 -0.00341797 16C-0.00341797 17.0645 0.308937 18.1057 0.894942 18.9945C1.48095 19.8832 2.31485 20.5805 3.29331 21C3.37396 21.0326 3.43864 21.0956 3.47352 21.1753C3.5084 21.255 3.51072 21.3452 3.47998 21.4266C3.08275 22.4151 2.98446 23.4984 3.19731 24.5421C3.41016 25.5859 3.92478 26.5443 4.67732 27.2982C5.42987 28.0522 6.38722 28.5686 7.4306 28.7834C8.47398 28.9982 9.55747 28.902 10.5466 28.5066C10.5869 28.489 10.6302 28.4795 10.6742 28.4786C10.7181 28.4778 10.7618 28.4856 10.8027 28.5018C10.8436 28.5179 10.8809 28.5419 10.9125 28.5725C10.944 28.6031 10.9693 28.6396 10.9866 28.68C11.4113 29.6566 12.1119 30.488 13.0026 31.0719C13.8932 31.6559 14.935 31.967 16 31.967C17.065 31.967 18.1068 31.6559 18.9974 31.0719C19.888 30.488 20.5887 29.6566 21.0133 28.68C21.0307 28.6396 21.0559 28.6031 21.0875 28.5725C21.1191 28.5419 21.1564 28.5179 21.1973 28.5018C21.2381 28.4856 21.2818 28.4778 21.3258 28.4786C21.3697 28.4795 21.4131 28.489 21.4533 28.5066C22.4425 28.902 23.526 28.9982 24.5694 28.7834C25.6127 28.5686 26.5701 28.0522 27.3226 27.2982C28.0752 26.5443 28.5898 25.5859 28.8027 24.5421C29.0155 23.4984 28.9172 22.4151 28.52 21.4266C28.4892 21.3452 28.4916 21.255 28.5264 21.1753C28.5613 21.0956 28.626 21.0326 28.7066 21C29.6851 20.5805 30.519 19.8832 31.105 18.9945C31.691 18.1057 32.0034 17.0645 32.0034 16C32.0034 14.9354 31.691 13.8942 31.105 13.0054C30.519 12.1167 29.6851 11.4194 28.7066 11ZM18.04 12.0133C18.3936 12.0133 18.7327 12.1538 18.9828 12.4038C19.2328 12.6539 19.3733 12.993 19.3733 13.3466C19.3733 13.7003 19.2328 14.0394 18.9828 14.2894C18.7327 14.5395 18.3936 14.68 18.04 14.68H13.08C12.9969 14.6826 12.9175 14.715 12.8563 14.7713C12.7951 14.8276 12.7562 14.904 12.7466 14.9866V15.9333V16.3733C12.7562 16.4559 12.7951 16.5323 12.8563 16.5886C12.9175 16.6449 12.9969 16.6773 13.08 16.68H16.6666C17.0203 16.68 17.3594 16.8204 17.6095 17.0705C17.8595 17.3205 18 17.6597 18 18.0133C18 18.3669 17.8595 18.7061 17.6095 18.9561C17.3594 19.2062 17.0203 19.3466 16.6666 19.3466H14.0533C13.9897 19.3452 13.927 19.3621 13.8727 19.3951C13.8184 19.4282 13.7746 19.4762 13.7466 19.5333C13.7149 19.5855 13.698 19.6455 13.698 19.7066C13.698 19.7678 13.7149 19.8277 13.7466 19.88C14.84 21.3066 16.8266 21.9333 19.9866 21.9333C20.3403 21.9333 20.6794 22.0738 20.9295 22.3238C21.1795 22.5739 21.32 22.913 21.32 23.2666C21.32 23.6203 21.1795 23.9594 20.9295 24.2094C20.6794 24.4595 20.3403 24.6 19.9866 24.6C17.9333 24.6 12.3866 24.6 10.6533 19.5733C10.6256 19.5111 10.5808 19.4581 10.5242 19.4203C10.4675 19.3826 10.4014 19.3616 10.3333 19.36H9.33331C8.97969 19.36 8.64055 19.2195 8.3905 18.9694C8.14046 18.7194 7.99998 18.3803 7.99998 18.0266C7.99998 17.673 8.14046 17.3339 8.3905 17.0838C8.64055 16.8338 8.97969 16.6933 9.33331 16.6933H9.73331C9.77872 16.6944 9.8238 16.6854 9.86531 16.667C9.90682 16.6485 9.9437 16.6211 9.97331 16.5866C10.0072 16.5543 10.0332 16.5147 10.0494 16.4708C10.0655 16.4269 10.0714 16.3798 10.0666 16.3333C10.0597 16.2045 10.0597 16.0754 10.0666 15.9466V15.0533C10.0682 14.9602 10.0349 14.8698 9.97331 14.8C9.94655 14.7635 9.91265 14.7329 9.87368 14.71C9.83472 14.6871 9.7915 14.6723 9.74665 14.6666H9.33331C9.15822 14.6666 8.98484 14.6321 8.82307 14.5651C8.6613 14.4981 8.51432 14.3999 8.3905 14.2761C8.26669 14.1523 8.16848 14.0053 8.10147 13.8435C8.03447 13.6818 7.99998 13.5084 7.99998 13.3333C7.99998 13.1582 8.03447 12.9848 8.10147 12.8231C8.16848 12.6613 8.26669 12.5143 8.3905 12.3905C8.51432 12.2667 8.6613 12.1685 8.82307 12.1015C8.98484 12.0344 9.15822 12 9.33331 12H10.4533C10.5184 12.0002 10.5821 11.9814 10.6366 11.9458C10.6911 11.9103 10.734 11.8596 10.76 11.8C12.7733 7.26663 18.04 7.26663 20 7.26663C20.3536 7.26663 20.6927 7.4071 20.9428 7.65715C21.1928 7.9072 21.3333 8.24634 21.3333 8.59996C21.3333 8.95358 21.1928 9.29272 20.9428 9.54277C20.6927 9.79282 20.3536 9.9333 20 9.9333C17.3333 9.9333 15.4133 10.3866 14.2533 11.4266C14.2011 11.4716 14.164 11.5316 14.1473 11.5985C14.1306 11.6653 14.135 11.7357 14.16 11.8C14.1854 11.8611 14.2278 11.9137 14.2821 11.9515C14.3365 11.9893 14.4005 12.0107 14.4666 12.0133H18.04Z" fill="#4E87C4"/>
    </g>
    <defs>
        <clipPath id="clip0_560_696">
            <rect width="32" height="32" fill="white"/>
        </clipPath>
    </defs>
</svg>
