<svg width="32" height="32" viewBox="0 0 32 32" fill="none" xmlns="http://www.w3.org/2000/svg">
    <path d="M16 2.41333C15.7359 2.41678 15.4835 2.52325 15.2967 2.71004C15.1099 2.89683 15.0035 3.14919 15 3.41333V7.41333C15 7.67855 15.1054 7.9329 15.2929 8.12044C15.4804 8.30797 15.7348 8.41333 16 8.41333C16.2652 8.41333 16.5196 8.30797 16.7071 8.12044C16.8946 7.9329 17 7.67855 17 7.41333V3.41333C16.9965 3.14919 16.8901 2.89683 16.7033 2.71004C16.5165 2.52325 16.2641 2.41678 16 2.41333Z" fill="#4E87C4"/>
    <path d="M24.7067 6.02671C24.5192 5.83944 24.265 5.73425 24 5.73425C23.735 5.73425 23.4809 5.83944 23.2934 6.02671L20.4667 8.85337C20.3685 8.94492 20.2897 9.05532 20.235 9.17799C20.1804 9.30065 20.151 9.43307 20.1486 9.56734C20.1462 9.70161 20.1709 9.83499 20.2212 9.9595C20.2715 10.084 20.3464 10.1971 20.4413 10.2921C20.5363 10.387 20.6494 10.4619 20.7739 10.5122C20.8984 10.5625 21.0318 10.5872 21.1661 10.5848C21.3004 10.5825 21.4328 10.5531 21.5554 10.4984C21.6781 10.4438 21.7885 10.365 21.88 10.2667L24.7067 7.44004C24.894 7.25254 24.9992 6.99837 24.9992 6.73337C24.9992 6.46837 24.894 6.21421 24.7067 6.02671Z" fill="#4E87C4"/>
    <path d="M8.70654 6.01328C8.51904 5.82601 8.26488 5.72083 7.99988 5.72083C7.73488 5.72083 7.48071 5.82601 7.29321 6.01328C7.19887 6.10521 7.12389 6.21509 7.07269 6.33646C7.02149 6.45783 6.99512 6.58822 6.99512 6.71994C6.99512 6.85167 7.02149 6.98206 7.07269 7.10343C7.12389 7.2248 7.19887 7.33468 7.29321 7.42661L10.1199 10.2533C10.2118 10.3476 10.3217 10.4226 10.4431 10.4738C10.5644 10.525 10.6948 10.5514 10.8265 10.5514C10.9583 10.5514 11.0887 10.525 11.21 10.4738C11.3314 10.4226 11.4413 10.3476 11.5332 10.2533C11.7205 10.0658 11.8257 9.81161 11.8257 9.54661C11.8257 9.28161 11.7205 9.02745 11.5332 8.83995L8.70654 6.01328Z" fill="#4E87C4"/>
    <path d="M11.44 13.24H1C0.735857 13.2434 0.483505 13.3499 0.296712 13.5367C0.109919 13.7235 0.00345329 13.9758 0 14.24L0 25.9733C0 26.2385 0.105357 26.4929 0.292893 26.6804C0.48043 26.868 0.734784 26.9733 1 26.9733H2.33333L5.33333 29.3333C5.51341 29.4708 5.73345 29.5457 5.96 29.5467H8.17333C9.05074 29.55 9.89895 29.2316 10.5574 28.6518C11.2159 28.0719 11.639 27.2708 11.7467 26.4H10.1867C9.6351 26.4443 9.08035 26.3736 8.55749 26.1925C8.03463 26.0114 7.55503 25.7238 7.14901 25.3479C6.743 24.9719 6.4194 24.5158 6.19867 24.0084C5.97794 23.501 5.86489 22.9533 5.86667 22.4C5.86667 20 7.05333 18.6667 9.13333 18.6667C9.48343 18.6599 9.83097 18.7277 10.1528 18.8656C10.4747 19.0036 10.7635 19.2085 11 19.4667C11.2209 19.7104 11.3883 19.9976 11.4916 20.3099C11.595 20.6222 11.6319 20.9526 11.6 21.28C11.5799 21.4547 11.4915 21.6145 11.3542 21.7244C11.2168 21.8343 11.0416 21.8854 10.8667 21.8667C10.6919 21.8465 10.5322 21.7582 10.4223 21.6208C10.3124 21.4835 10.2613 21.3082 10.28 21.1333C10.2894 20.9932 10.2706 20.8525 10.2248 20.7197C10.179 20.5869 10.1071 20.4646 10.0133 20.36C9.8994 20.2426 9.7624 20.15 9.61096 20.088C9.45953 20.0261 9.29691 19.9961 9.13333 20C8.29333 20 7.2 20.2533 7.2 22.4933C7.19726 22.8721 7.27527 23.2472 7.42883 23.5935C7.58239 23.9398 7.80797 24.2495 8.09056 24.5018C8.37314 24.7541 8.70624 24.9433 9.06767 25.0568C9.42911 25.1703 9.81057 25.2055 10.1867 25.16H12.1067C12.9515 24.8821 13.6884 24.3472 14.2143 23.6301C14.7403 22.9129 15.0289 22.0493 15.04 21.16V16.8533C15.0418 16.3794 14.9499 15.9099 14.7698 15.4716C14.5897 15.0333 14.3248 14.6348 13.9903 14.2991C13.6558 13.9634 13.2584 13.697 12.8207 13.5153C12.3831 13.3335 11.9139 13.24 11.44 13.24Z" fill="#4E87C4"/>
    <path d="M20.56 13.24H31C31.2641 13.2434 31.5165 13.3499 31.7033 13.5367C31.8901 13.7235 31.9965 13.9758 32 14.24V25.9733C32 26.2385 31.8946 26.4929 31.7071 26.6804C31.5196 26.868 31.2652 26.9733 31 26.9733H29.6667L26.7333 29.3333C26.5532 29.4708 26.3332 29.5457 26.1067 29.5467H23.8267C22.9492 29.55 22.101 29.2316 21.4425 28.6518C20.784 28.0719 20.361 27.2708 20.2533 26.4H21.8133C22.3649 26.4443 22.9196 26.3736 23.4425 26.1925C23.9654 26.0114 24.445 25.7238 24.851 25.3479C25.257 24.9719 25.5806 24.5158 25.8013 24.0084C26.022 23.501 26.1351 22.9533 26.1333 22.4C26.1333 20 24.9467 18.6667 22.8667 18.6667C22.5166 18.6599 22.169 18.7277 21.8472 18.8656C21.5253 19.0036 21.2365 19.2085 21 19.4667C20.7791 19.7104 20.6117 19.9976 20.5083 20.3099C20.405 20.6222 20.3681 20.9526 20.4 21.28C20.4201 21.4547 20.5085 21.6145 20.6458 21.7244C20.7832 21.8343 20.9584 21.8854 21.1333 21.8667C21.3081 21.8465 21.4678 21.7582 21.5777 21.6208C21.6876 21.4835 21.7387 21.3082 21.72 21.1333C21.7106 20.9932 21.7294 20.8525 21.7752 20.7197C21.821 20.5869 21.8929 20.4646 21.9867 20.36C22.1006 20.2426 22.2376 20.15 22.389 20.088C22.5405 20.0261 22.7031 19.9961 22.8667 20C23.7067 20 24.8 20.2533 24.8 22.4933C24.8027 22.8721 24.7247 23.2472 24.5712 23.5935C24.4176 23.9398 24.192 24.2495 23.9094 24.5018C23.6268 24.7541 23.2937 24.9433 22.9323 25.0568C22.5709 25.1703 22.1894 25.2055 21.8133 25.16H19.8933C19.0485 24.8821 18.3116 24.3472 17.7857 23.6301C17.2597 22.9129 16.9711 22.0493 16.96 21.16V16.8533C16.9582 16.3794 17.0501 15.9099 17.2302 15.4716C17.4103 15.0333 17.6752 14.6348 18.0097 14.2991C18.3441 13.9634 18.7416 13.697 19.1792 13.5153C19.6169 13.3335 20.0861 13.24 20.56 13.24Z" fill="#4E87C4"/>
</svg>