<svg width="32" height="32" viewBox="0 0 32 32" fill="none" xmlns="http://www.w3.org/2000/svg">
    <path d="M25.6667 27.9151H30.3334C30.4218 27.9151 30.5066 27.8792 30.5691 27.8153C30.6316 27.7515 30.6667 27.6649 30.6667 27.5746V24.5109C30.6667 24.3303 30.5965 24.1572 30.4714 24.0295C30.3464 23.9018 30.1769 23.8301 30 23.8301H26C25.8232 23.8301 25.6537 23.9018 25.5286 24.0295C25.4036 24.1572 25.3334 24.3303 25.3334 24.5109V27.5746C25.3334 27.6649 25.3685 27.7515 25.431 27.8153C25.4935 27.8792 25.5783 27.9151 25.6667 27.9151Z" fill="#4E87C4"/>
    <path d="M18 17.0215C17.8232 17.0215 17.6537 17.0932 17.5286 17.2209C17.4036 17.3486 17.3334 17.5217 17.3334 17.7023V27.5743C17.3334 27.6646 17.3685 27.7512 17.431 27.815C17.4935 27.8789 17.5783 27.9147 17.6667 27.9147H22.3334C22.4218 27.9147 22.5066 27.8789 22.5691 27.815C22.6316 27.7512 22.6667 27.6646 22.6667 27.5743V17.7023C22.6667 17.5217 22.5965 17.3486 22.4714 17.2209C22.3464 17.0932 22.1769 17.0215 22 17.0215H18Z" fill="#4E87C4"/>
    <path d="M10 19.7451C9.82323 19.7451 9.65366 19.8168 9.52864 19.9445C9.40361 20.0722 9.33337 20.2454 9.33337 20.4259V27.5746C9.33337 27.6649 9.36849 27.7515 9.431 27.8154C9.49352 27.8792 9.5783 27.9151 9.66671 27.9151H14.3334C14.4218 27.9151 14.5066 27.8792 14.5691 27.8154C14.6316 27.7515 14.6667 27.6649 14.6667 27.5746V20.4259C14.6667 20.2454 14.5965 20.0722 14.4714 19.9445C14.3464 19.8168 14.1769 19.7451 14 19.7451H10Z" fill="#4E87C4"/>
    <path d="M2.00004 10.2134C1.82323 10.2134 1.65366 10.2851 1.52864 10.4128C1.40361 10.5405 1.33337 10.7136 1.33337 10.8942V27.5745C1.33337 27.6648 1.36849 27.7514 1.43101 27.8152C1.49352 27.8791 1.5783 27.9149 1.66671 27.9149H6.33337C6.42178 27.9149 6.50656 27.8791 6.56908 27.8152C6.63159 27.7514 6.66671 27.6648 6.66671 27.5745V10.8942C6.66671 10.7136 6.59647 10.5405 6.47145 10.4128C6.34642 10.2851 6.17685 10.2134 6.00004 10.2134H2.00004Z" fill="#4E87C4"/>
    <path d="M1.33333 31.9999H30.6667C31.0203 31.9999 31.3594 31.8565 31.6095 31.6011C31.8595 31.3457 32 30.9994 32 30.6383C32 30.2771 31.8595 29.9308 31.6095 29.6754C31.3594 29.4201 31.0203 29.2766 30.6667 29.2766H1.33333C0.979711 29.2766 0.640573 29.4201 0.390524 29.6754C0.140476 29.9308 0 30.2771 0 30.6383C0 30.9994 0.140476 31.3457 0.390524 31.6011C0.640573 31.8565 0.979711 31.9999 1.33333 31.9999Z" fill="#4E87C4"/>
    <path d="M23.2 14.8431C23.1029 14.9343 23.0364 15.0545 23.0101 15.1865C22.9837 15.3185 22.9989 15.4557 23.0533 15.5784C23.1034 15.7027 23.1883 15.8092 23.2974 15.8843C23.4066 15.9594 23.5351 15.9999 23.6667 16.0005H29C29.1768 16.0005 29.3464 15.9288 29.4714 15.8011C29.5964 15.6734 29.6667 15.5003 29.6667 15.3197V9.87306C29.6771 9.72953 29.6427 9.58632 29.5684 9.464C29.4942 9.34167 29.3839 9.24653 29.2533 9.19223C29.17 9.17294 29.0834 9.17294 29 9.19223C28.9126 9.19114 28.8259 9.20876 28.7455 9.24393C28.6651 9.27911 28.5929 9.33107 28.5333 9.39648L27.3867 10.5539C27.3566 10.5887 27.3197 10.6165 27.2783 10.6356C27.237 10.6547 27.1921 10.6645 27.1467 10.6645C27.1013 10.6645 27.0564 10.6547 27.015 10.6356C26.9736 10.6165 26.9367 10.5887 26.9067 10.5539L22.6667 5.92425C22.1027 5.29806 21.3734 4.85178 20.5667 4.63918C19.76 4.42658 18.9103 4.45673 18.12 4.726L13.2133 6.46892C13.0537 6.52311 12.8833 6.5353 12.7178 6.50436C12.5523 6.47342 12.3972 6.40035 12.2667 6.2919L5.40001 0.395925C5.0995 0.142947 4.72278 0.00348782 4.33334 0.00104392C4.07997 -0.00805877 3.82794 0.0424677 3.59675 0.148717C3.36555 0.254966 3.16137 0.414091 3.00001 0.61379C2.71723 0.960531 2.58086 1.40776 2.62086 1.85715C2.66087 2.30655 2.87398 2.72133 3.21334 3.01031L10.12 8.85182C10.6875 9.33443 11.3666 9.66043 12.0925 9.79869C12.8185 9.93696 13.567 9.88286 14.2667 9.64158L19.2267 7.95313C19.4096 7.89335 19.6053 7.88718 19.7915 7.93532C19.9777 7.98346 20.147 8.08398 20.28 8.22546L24.56 12.9776C24.6181 13.0428 24.6503 13.1278 24.6503 13.2159C24.6503 13.3041 24.6181 13.389 24.56 13.4542L23.2 14.8431Z" fill="#4E87C4"/>
</svg>
