<svg width="32" height="32" viewBox="0 0 32 32" fill="none" xmlns="http://www.w3.org/2000/svg">
    <g clip-path="url(#clip0_560_571)">
        <path d="M4.22659 15.3334C3.73325 15.3334 3.33325 15.6267 3.33325 16V26.6667C3.33325 26.8435 3.40349 27.0131 3.52851 27.1381C3.65354 27.2631 3.82311 27.3334 3.99992 27.3334H7.99992C8.17673 27.3334 8.3463 27.2631 8.47132 27.1381C8.59635 27.0131 8.66659 26.8435 8.66659 26.6667V16C8.66659 15.6267 8.26659 15.3334 7.77325 15.3334H4.22659Z" fill="#4E87C4"/>
        <path d="M14.8933 19.3334C14.4 19.3334 14 19.6267 14 20V26.6667C14 26.8435 14.0702 27.0131 14.1953 27.1381C14.3203 27.2631 14.4899 27.3334 14.6667 27.3334H18.6667C18.7542 27.3334 18.8409 27.3161 18.9218 27.2826C19.0027 27.2491 19.0762 27.2 19.1381 27.1381C19.2 27.0762 19.2491 27.0027 19.2826 26.9218C19.3161 26.8409 19.3333 26.7543 19.3333 26.6667V20C19.3333 19.6267 18.9333 19.3334 18.44 19.3334H14.8933Z" fill="#4E87C4"/>
        <path d="M24.6668 27.3333H28.6668C28.7553 27.3371 28.8437 27.3225 28.9263 27.2903C29.0089 27.2581 29.0839 27.2091 29.1466 27.1465C29.2092 27.0838 29.2582 27.0088 29.2904 26.9262C29.3225 26.8436 29.3372 26.7552 29.3334 26.6667V10.6667C29.3334 10.3333 28.9334 10.0533 28.4401 10.0533H24.8934C24.4001 10.0533 24.0001 10.3333 24.0001 10.6667V26.6667C23.9963 26.7552 24.011 26.8436 24.0431 26.9262C24.0753 27.0088 24.1243 27.0838 24.187 27.1465C24.2496 27.2091 24.3246 27.2581 24.4072 27.2903C24.4898 27.3225 24.5782 27.3371 24.6668 27.3333Z" fill="#4E87C4"/>
        <path d="M30.6667 29.3334H1.33333C0.979711 29.3334 0.640573 29.4738 0.390524 29.7239C0.140476 29.9739 0 30.3131 0 30.6667C0 31.0203 0.140476 31.3595 0.390524 31.6095C0.640573 31.8596 0.979711 32 1.33333 32H30.6667C31.0203 32 31.3594 31.8596 31.6095 31.6095C31.8595 31.3595 32 31.0203 32 30.6667C32 30.3131 31.8595 29.9739 31.6095 29.7239C31.3594 29.4738 31.0203 29.3334 30.6667 29.3334Z" fill="#4E87C4"/>
        <path d="M25.3999 5.25333C25.5956 5.30609 25.7973 5.33299 25.9999 5.33333C26.5273 5.33333 27.0429 5.17694 27.4814 4.88392C27.92 4.5909 28.2618 4.17443 28.4636 3.68716C28.6654 3.19989 28.7182 2.66371 28.6153 2.14643C28.5124 1.62914 28.2585 1.15399 27.8855 0.78105C27.5126 0.40811 27.0374 0.154134 26.5201 0.0512405C26.0029 -0.0516535 25.4667 0.00115542 24.9794 0.202989C24.4921 0.404823 24.0757 0.746616 23.7827 1.18515C23.4896 1.62368 23.3332 2.13925 23.3332 2.66667C23.3201 2.80858 23.3201 2.95142 23.3332 3.09333C23.3408 3.14722 23.335 3.20213 23.3164 3.25326C23.2978 3.30439 23.2669 3.35019 23.2266 3.38667L16.9066 9.33333C16.8668 9.37215 16.8176 9.39994 16.7638 9.41397C16.7101 9.42799 16.6536 9.42778 16.5999 9.41333C16.4043 9.36058 16.2025 9.33368 15.9999 9.33333C15.5332 9.33374 15.0744 9.45305 14.6666 9.68C14.6175 9.70684 14.5625 9.72091 14.5066 9.72091C14.4507 9.72091 14.3956 9.70684 14.3466 9.68L8.14658 6.58667C8.10513 6.55769 8.07053 6.52 8.04519 6.47624C8.01986 6.43248 8.0044 6.3837 7.99991 6.33333C7.93586 5.82506 7.72675 5.34598 7.3976 4.95342C7.06844 4.56085 6.63318 4.2714 6.14386 4.11969C5.65454 3.96798 5.13187 3.96043 4.63837 4.09795C4.14487 4.23546 3.70143 4.51222 3.36108 4.89511C3.02072 5.27801 2.79787 5.75084 2.71916 6.25706C2.64045 6.76328 2.70923 7.28145 2.91726 7.74961C3.12529 8.21777 3.46377 8.6161 3.89222 8.89696C4.32068 9.17782 4.82096 9.32931 5.33324 9.33333C5.79992 9.33293 6.2588 9.21362 6.66658 8.98667C6.7136 8.96099 6.76633 8.94754 6.81991 8.94754C6.87349 8.94754 6.92621 8.96099 6.97324 8.98667L13.1866 12.08C13.233 12.1061 13.2728 12.1425 13.3028 12.1864C13.3329 12.2304 13.3524 12.2806 13.3599 12.3333C13.4541 12.998 13.7954 13.6027 14.3158 14.0267C14.8362 14.4507 15.4974 14.6628 16.1674 14.6208C16.8374 14.5787 17.4668 14.2855 17.9301 13.7997C18.3933 13.3139 18.6563 12.6712 18.6666 12C18.6798 11.8581 18.6798 11.7153 18.6666 11.5733C18.6591 11.5194 18.6649 11.4645 18.6835 11.4134C18.702 11.3623 18.7329 11.3165 18.7732 11.28L25.0932 5.33333C25.133 5.29452 25.1822 5.26673 25.236 5.2527C25.2897 5.23868 25.3462 5.23889 25.3999 5.25333Z" fill="#4E87C4"/>
    </g>
    <defs>
        <clipPath id="clip0_560_571">
            <rect width="32" height="32" fill="white"/>
        </clipPath>
    </defs>
</svg>