<svg width="32" height="32" viewBox="0 0 32 32" fill="none" xmlns="http://www.w3.org/2000/svg">
    <path d="M32 26.6667C32 26.313 31.8595 25.9739 31.6095 25.7239C31.3594 25.4738 31.0203 25.3333 30.6667 25.3333H23.6933C23.6283 25.3336 23.5646 25.3147 23.5101 25.2792C23.4556 25.2437 23.4127 25.193 23.3867 25.1333C23.3614 25.0734 23.3543 25.0073 23.3661 24.9434C23.378 24.8794 23.4083 24.8203 23.4533 24.7733C26.7867 21.1067 27.8533 14.9867 28.08 9.96C28.0902 9.79021 28.1649 9.63075 28.2889 9.51425C28.4128 9.39775 28.5766 9.33303 28.7467 9.33333H30C30.2648 9.33487 30.5241 9.25751 30.7448 9.11111C30.9655 8.96471 31.1376 8.7559 31.2392 8.51131C31.3407 8.26672 31.3671 7.99742 31.315 7.73776C31.2629 7.4781 31.1347 7.23983 30.9467 7.05333L27.6133 3.72C27.4894 3.59503 27.3419 3.49584 27.1794 3.42814C27.017 3.36045 26.8427 3.3256 26.6667 3.3256C26.4907 3.3256 26.3164 3.36045 26.1539 3.42814C25.9914 3.49584 25.844 3.59503 25.72 3.72L22.3867 7.05333C22.1986 7.23983 22.0704 7.4781 22.0183 7.73776C21.9662 7.99742 21.9926 8.26672 22.0942 8.51131C22.1957 8.7559 22.3678 8.96471 22.5885 9.11111C22.8092 9.25751 23.0685 9.33487 23.3333 9.33333H24.7333C24.8229 9.33122 24.9119 9.34793 24.9946 9.38239C25.0772 9.41684 25.1518 9.46826 25.2133 9.53333C25.2764 9.59854 25.3254 9.67593 25.3575 9.76075C25.3896 9.84558 25.4041 9.93606 25.4 10.0267C25.2133 14.1867 24.3733 19.8 21.48 22.9733C20.5982 23.9644 19.4506 24.6816 18.1733 25.04C18.0766 25.0724 17.9732 25.0797 17.8728 25.061C17.7725 25.0423 17.6786 24.9984 17.6 24.9333C17.5156 24.8728 17.4472 24.7925 17.4008 24.6996C17.3543 24.6067 17.3312 24.5039 17.3333 24.4V21.3333C17.3333 21.1565 17.4036 20.987 17.5286 20.8619C17.6536 20.7369 17.8232 20.6667 18 20.6667H18.24C18.5936 20.6667 18.9328 20.5262 19.1828 20.2761C19.4329 20.0261 19.5733 19.687 19.5733 19.3333C19.5733 18.9797 19.4329 18.6406 19.1828 18.3905C18.9328 18.1405 18.5936 18 18.24 18H18C17.8232 18 17.6536 17.9298 17.5286 17.8047C17.4036 17.6797 17.3333 17.5101 17.3333 17.3333V14C17.3333 13.8232 17.4036 13.6536 17.5286 13.5286C17.6536 13.4036 17.8232 13.3333 18 13.3333H18.24C18.5936 13.3333 18.9328 13.1929 19.1828 12.9428C19.4329 12.6928 19.5733 12.3536 19.5733 12C19.5733 11.6464 19.4329 11.3072 19.1828 11.0572C18.9328 10.8071 18.5936 10.6667 18.24 10.6667H18C17.8232 10.6667 17.6536 10.5964 17.5286 10.4714C17.4036 10.3464 17.3333 10.1768 17.3333 10V1.33333C17.3333 0.979711 17.1929 0.640573 16.9428 0.390524C16.6928 0.140476 16.3536 0 16 0C15.6464 0 15.3072 0.140476 15.0572 0.390524C14.8071 0.640573 14.6667 0.979711 14.6667 1.33333V10C14.6667 10.1768 14.5964 10.3464 14.4714 10.4714C14.3464 10.5964 14.1768 10.6667 14 10.6667H13.5733C13.2197 10.6667 12.8806 10.8071 12.6305 11.0572C12.3805 11.3072 12.24 11.6464 12.24 12C12.24 12.3536 12.3805 12.6928 12.6305 12.9428C12.8806 13.1929 13.2197 13.3333 13.5733 13.3333H14C14.1768 13.3333 14.3464 13.4036 14.4714 13.5286C14.5964 13.6536 14.6667 13.8232 14.6667 14V17.3333C14.6667 17.5101 14.5964 17.6797 14.4714 17.8047C14.3464 17.9298 14.1768 18 14 18H13.5733C13.2197 18 12.8806 18.1405 12.6305 18.3905C12.3805 18.6406 12.24 18.9797 12.24 19.3333C12.24 19.687 12.3805 20.0261 12.6305 20.2761C12.8806 20.5262 13.2197 20.6667 13.5733 20.6667H14C14.1768 20.6667 14.3464 20.7369 14.4714 20.8619C14.5964 20.987 14.6667 21.1565 14.6667 21.3333V24.4C14.6688 24.5039 14.6457 24.6067 14.5992 24.6996C14.5528 24.7925 14.4844 24.8728 14.4 24.9333C14.3214 24.9984 14.2275 25.0423 14.1272 25.061C14.0268 25.0797 13.9234 25.0724 13.8267 25.04C12.547 24.6873 11.3979 23.9691 10.52 22.9733C7.62667 19.8133 6.8 14.1867 6.66667 10.0267C6.66555 9.84476 6.73208 9.66893 6.85333 9.53333C6.96375 9.42076 7.10987 9.35006 7.26667 9.33333H8.6C8.86483 9.33487 9.12413 9.25751 9.34482 9.11111C9.56551 8.96471 9.73761 8.7559 9.83916 8.51131C9.94072 8.26672 9.96713 7.99742 9.91504 7.73776C9.86295 7.4781 9.73471 7.23983 9.54667 7.05333L6.21333 3.72C6.08938 3.59503 5.94191 3.49584 5.77944 3.42814C5.61696 3.36045 5.44268 3.3256 5.26667 3.3256C5.09065 3.3256 4.91638 3.36045 4.7539 3.42814C4.59142 3.49584 4.44395 3.59503 4.32 3.72L1.05333 7.05333C0.865294 7.23983 0.737054 7.4781 0.684961 7.73776C0.632868 7.99742 0.659283 8.26672 0.760839 8.51131C0.862394 8.7559 1.03449 8.96471 1.25518 9.11111C1.47588 9.25751 1.73517 9.33487 2 9.33333H3.25333C3.42343 9.33303 3.58721 9.39775 3.71114 9.51425C3.83508 9.63075 3.90979 9.79021 3.92 9.96C4.14667 15 5.25333 21.1067 8.54667 24.7733C8.58113 24.827 8.59945 24.8895 8.59945 24.9533C8.59945 25.0171 8.58113 25.0796 8.54667 25.1333C8.52065 25.193 8.47774 25.2437 8.42325 25.2792C8.36876 25.3147 8.30506 25.3336 8.24 25.3333H1.33333C0.979711 25.3333 0.640573 25.4738 0.390524 25.7239C0.140476 25.9739 0 26.313 0 26.6667C0 27.0203 0.140476 27.3594 0.390524 27.6095C0.640573 27.8595 0.979711 28 1.33333 28H14C14.1768 28 14.3464 28.0702 14.4714 28.1953C14.5964 28.3203 14.6667 28.4899 14.6667 28.6667V30.6667C14.6667 31.0203 14.8071 31.3594 15.0572 31.6095C15.3072 31.8595 15.6464 32 16 32C16.3536 32 16.6928 31.8595 16.9428 31.6095C17.1929 31.3594 17.3333 31.0203 17.3333 30.6667V28.6667C17.3333 28.4899 17.4036 28.3203 17.5286 28.1953C17.6536 28.0702 17.8232 28 18 28H30.6667C31.0203 28 31.3594 27.8595 31.6095 27.6095C31.8595 27.3594 32 27.0203 32 26.6667Z" fill="#4E87C4"/>
</svg>
