<svg width="56" height="56" viewBox="0 0 56 56" fill="none" xmlns="http://www.w3.org/2000/svg">
    <rect x="0.5" y="0.5" width="55" height="55" rx="9.5" stroke="#E8E8E8"/>
    <g clip-path="url(#clip0_1264_2787)">
        <path d="M42.6663 26.88H39.9197C39.5018 26.8789 39.0899 26.9796 38.7197 27.1733C38.6338 27.2062 38.5389 27.2062 38.453 27.1733L32.7197 24.9867C32.1709 24.7922 31.589 24.7085 31.0076 24.7406C30.4263 24.7726 29.8571 24.9197 29.333 25.1733L26.5063 26.5067C26.4573 26.5335 26.4023 26.5476 26.3463 26.5476C26.2904 26.5476 26.2354 26.5335 26.1863 26.5067C25.657 26.2002 25.0645 26.0192 24.4542 25.9776C23.844 25.936 23.2324 26.0349 22.6663 26.2667L18.6663 28C18.6001 28.026 18.5275 28.031 18.4583 28.0143C18.3891 27.9976 18.3268 27.96 18.2797 27.9067C18.0123 27.595 17.681 27.3444 17.3084 27.1719C16.9357 26.9994 16.5303 26.9089 16.1197 26.9067H13.333C13.0689 26.9101 12.8165 27.0166 12.6297 27.2034C12.4429 27.3902 12.3365 27.6425 12.333 27.9067V40.5733C12.333 40.8386 12.4384 41.0929 12.6259 41.2804C12.8134 41.468 13.0678 41.5733 13.333 41.5733H16.0797C16.5314 41.5763 16.9771 41.4699 17.3787 41.2632C17.7804 41.0566 18.1261 40.7559 18.3863 40.3867C18.415 40.3368 18.4556 40.2949 18.5044 40.2646C18.5533 40.2344 18.609 40.2167 18.6663 40.2133H19.9063C19.9807 40.2137 20.0522 40.2423 20.1063 40.2933L23.8397 43.2267C24.0794 43.4716 24.3657 43.6662 24.6816 43.799C24.9976 43.9318 25.3369 44.0001 25.6797 44C26.2812 43.9965 26.8638 43.7898 27.333 43.4133L31.3997 40.0667C31.4414 40.0312 31.4922 40.0081 31.5463 40L36.7463 38.96C36.828 38.9293 36.918 38.9293 36.9997 38.96C37.0683 39.0128 37.1157 39.0885 37.133 39.1733C37.2518 39.8254 37.596 40.415 38.1053 40.839C38.6147 41.2631 39.2569 41.4947 39.9197 41.4933H42.6663C42.9316 41.4933 43.1859 41.388 43.3734 41.2004C43.561 41.0129 43.6663 40.7586 43.6663 40.4933V27.8267C43.6496 27.5719 43.5372 27.3329 43.3518 27.1574C43.1664 26.9819 42.9216 26.8828 42.6663 26.88ZM31.7063 36.3733L25.9463 41.1867C25.8928 41.2278 25.8272 41.25 25.7597 41.25C25.6922 41.25 25.6266 41.2278 25.573 41.1867L21.333 37.84C21.0984 37.6518 20.8071 37.5484 20.5063 37.5467H19.253C19.1646 37.5467 19.0798 37.5115 19.0173 37.449C18.9548 37.3865 18.9197 37.3017 18.9197 37.2133V30.96C18.922 30.8972 18.942 30.8364 18.9774 30.7845C19.0128 30.7326 19.0621 30.6918 19.1197 30.6667L23.6263 28.7467C23.6758 28.721 23.7306 28.7075 23.7863 28.7075C23.842 28.7075 23.8969 28.721 23.9463 28.7467C23.9876 28.7848 24.0171 28.8339 24.0313 28.8883C24.0455 28.9426 24.0438 28.9999 24.0263 29.0533C23.8443 29.7785 23.8909 30.5423 24.1597 31.24C24.3242 31.6811 24.5742 32.0853 24.8954 32.4295C25.2165 32.7737 25.6026 33.051 26.0313 33.2455C26.46 33.44 26.9229 33.5479 27.3934 33.563C27.8639 33.5781 28.3327 33.5 28.773 33.3333L28.9863 33.24C29.047 33.2209 29.1119 33.2195 29.1733 33.236C29.2347 33.2526 29.2902 33.2863 29.333 33.3333L31.7197 36C31.7768 36.0664 31.8056 36.1526 31.7997 36.24C31.7811 36.292 31.7489 36.3381 31.7063 36.3733ZM37.0397 35.8933C37.0412 35.9713 37.0154 36.0474 36.9667 36.1083C36.918 36.1692 36.8494 36.2111 36.773 36.2267L35.0263 36.5733C34.9778 36.586 34.9269 36.5865 34.878 36.5749C34.8292 36.5633 34.784 36.5398 34.7463 36.5067C34.7074 36.4743 34.6763 36.4334 34.6555 36.3872C34.6347 36.341 34.6248 36.2906 34.6263 36.24C34.6263 34.9067 34.1597 34.6267 30.5063 30.6C30.3157 30.407 30.0735 30.2729 29.8087 30.2138C29.5439 30.1547 29.2677 30.173 29.013 30.2667L27.6797 30.7867C27.5746 30.833 27.4611 30.8569 27.3463 30.8569C27.2316 30.8569 27.118 30.833 27.013 30.7867C26.8019 30.6921 26.635 30.5203 26.5463 30.3067C26.4638 30.108 26.4607 29.8852 26.5376 29.6842C26.6145 29.4833 26.7656 29.3195 26.9597 29.2267L30.373 27.5733C30.7914 27.3793 31.2677 27.3507 31.7063 27.4933L36.8263 29.4533C36.8768 29.4741 36.92 29.5091 36.9508 29.5541C36.9816 29.5991 36.9986 29.6522 36.9997 29.7067L37.0397 35.8933Z" fill="#4E87C4"/>
        <path d="M24.3333 23.9067C24.3465 23.7826 24.3465 23.6575 24.3333 23.5334V23C24.3348 22.6366 24.2392 22.2793 24.0564 21.9652C23.8735 21.6511 23.6101 21.3915 23.2933 21.2134L21.3333 20C21.4782 18.7356 21.977 17.5378 22.7724 16.5444C23.5679 15.5509 24.6276 14.8022 25.8297 14.3843C27.0318 13.9664 28.3275 13.8964 29.5676 14.1822C30.8078 14.468 31.942 15.0981 32.84 16L31.68 17.16H29.2533C29.0213 17.1602 28.7922 17.2117 28.5824 17.3108C28.3727 17.41 28.1874 17.5542 28.04 17.7334L27.3066 18.6667C27.0695 18.9684 26.9509 19.3463 26.973 19.7294C26.9951 20.1125 27.1564 20.4743 27.4266 20.7467L28.44 21.76C28.6199 21.9412 28.842 22.075 29.0863 22.1494C29.3306 22.2239 29.5895 22.2367 29.84 22.1867L31.6133 21.8267L32.6533 22.3467L32.4266 22.7867C32.774 22.841 33.114 22.9349 33.44 23.0667L36.1066 24.08C36.5307 23.0386 36.7481 21.9245 36.7466 20.8C36.7566 19.4575 36.4583 18.1306 35.8747 16.9215C35.2911 15.7124 34.4378 14.6534 33.3806 13.826C32.3233 12.9986 31.0902 12.4248 29.7763 12.1489C28.4624 11.8731 27.1027 11.9024 25.8019 12.2347C24.5011 12.5671 23.294 13.1935 22.2734 14.0657C21.2528 14.938 20.446 16.0329 19.9152 17.266C19.3843 18.4992 19.1435 19.8377 19.2114 21.1786C19.2793 22.5194 19.654 23.8268 20.3066 25L21.7466 24.3867C22.5619 24.0347 23.446 23.8707 24.3333 23.9067Z" fill="#4E87C4"/>
    </g>
    <defs>
        <clipPath id="clip0_1264_2787">
            <rect width="32" height="32" fill="white" transform="translate(12 12)"/>
        </clipPath>
    </defs>
</svg>
