<svg width="32" height="32" viewBox="0 0 32 32" fill="none" xmlns="http://www.w3.org/2000/svg">
    <g clip-path="url(#clip0_560_699)">
        <path d="M8.6265 10.1733H6.6665C6.40129 10.1733 6.14693 10.2787 5.9594 10.4662C5.77186 10.6538 5.6665 10.9081 5.6665 11.1733C5.6665 11.4386 5.77186 11.6929 5.9594 11.8804C6.14693 12.068 6.40129 12.1733 6.6665 12.1733H8.6665C8.93172 12.1733 9.18607 12.068 9.37361 11.8804C9.56115 11.6929 9.6665 11.4386 9.6665 11.1733C9.6665 10.9081 9.56115 10.6538 9.37361 10.4662C9.18607 10.2787 8.93172 10.1733 8.6665 10.1733H8.6265Z" fill="#4E87C4"/>
        <path d="M8.6265 14.1733H6.6665C6.40129 14.1733 6.14693 14.2787 5.9594 14.4662C5.77186 14.6538 5.6665 14.9081 5.6665 15.1733C5.6665 15.4386 5.77186 15.6929 5.9594 15.8804C6.14693 16.068 6.40129 16.1733 6.6665 16.1733H8.6665C8.93172 16.1733 9.18607 16.068 9.37361 15.8804C9.56115 15.6929 9.6665 15.4386 9.6665 15.1733C9.6665 14.9081 9.56115 14.6538 9.37361 14.4662C9.18607 14.2787 8.93172 14.1733 8.6665 14.1733H8.6265Z" fill="#4E87C4"/>
        <path d="M8.6265 18.1733H6.6665C6.40129 18.1733 6.14693 18.2787 5.9594 18.4662C5.77186 18.6538 5.6665 18.9081 5.6665 19.1733C5.6665 19.4386 5.77186 19.6929 5.9594 19.8804C6.14693 20.068 6.40129 20.1733 6.6665 20.1733H8.6665C8.93172 20.1733 9.18607 20.068 9.37361 19.8804C9.56115 19.6929 9.6665 19.4386 9.6665 19.1733C9.6665 18.9081 9.56115 18.6538 9.37361 18.4662C9.18607 18.2787 8.93172 18.1733 8.6665 18.1733H8.6265Z" fill="#4E87C4"/>
        <path d="M19.6265 12.1733H12.6265C12.3612 12.1733 12.1069 12.068 11.9194 11.8804C11.7318 11.6929 11.6265 11.4386 11.6265 11.1733C11.6265 10.9081 11.7318 10.6538 11.9194 10.4662C12.1069 10.2787 12.3612 10.1733 12.6265 10.1733H19.6265C19.8917 10.1733 20.146 10.2787 20.3336 10.4662C20.5211 10.6538 20.6265 10.9081 20.6265 11.1733C20.6265 11.4386 20.5211 11.6929 20.3336 11.8804C20.146 12.068 19.8917 12.1733 19.6265 12.1733Z" fill="#4E87C4"/>
        <path d="M15.9998 14.1733H12.6265C12.3612 14.1733 12.1069 14.2787 11.9194 14.4662C11.7318 14.6538 11.6265 14.9081 11.6265 15.1733C11.6265 15.4386 11.7318 15.6929 11.9194 15.8804C12.1069 16.068 12.3612 16.1733 12.6265 16.1733H15.9998C16.265 16.1733 16.5194 16.068 16.7069 15.8804C16.8944 15.6929 16.9998 15.4386 16.9998 15.1733C16.9998 14.9081 16.8944 14.6538 16.7069 14.4662C16.5194 14.2787 16.265 14.1733 15.9998 14.1733Z" fill="#4E87C4"/>
        <path d="M14.9598 18.1733H12.6265C12.3612 18.1733 12.1069 18.2787 11.9194 18.4662C11.7318 18.6538 11.6265 18.9081 11.6265 19.1733C11.6265 19.4386 11.7318 19.6929 11.9194 19.8804C12.1069 20.068 12.3612 20.1733 12.6265 20.1733H14.9598C15.225 20.1733 15.4794 20.068 15.6669 19.8804C15.8544 19.6929 15.9598 19.4386 15.9598 19.1733C15.9598 18.9081 15.8544 18.6538 15.6669 18.4662C15.4794 18.2787 15.225 18.1733 14.9598 18.1733Z" fill="#4E87C4"/>
        <path d="M17.1065 24.6667V23.68H3.46647V7.53337H24.7998V15.64C25.0571 15.5762 25.3214 15.5448 25.5865 15.5467C25.9537 15.5434 26.3188 15.602 26.6665 15.72L27.4665 15.9867V3.70671C27.4665 2.99946 27.1855 2.32118 26.6854 1.82109C26.1853 1.32099 25.507 1.04004 24.7998 1.04004H3.46647C2.75923 1.04004 2.08095 1.32099 1.58085 1.82109C1.08076 2.32118 0.799805 2.99946 0.799805 3.70671V23.7067C0.799805 24.414 1.08076 25.0922 1.58085 25.5923C2.08095 26.0924 2.75923 26.3734 3.46647 26.3734H17.3331C17.2016 25.8133 17.1257 25.2417 17.1065 24.6667Z" fill="#4E87C4"/>
        <path d="M31.0933 19.3601L25.9866 17.6134C25.7058 17.5169 25.4008 17.5169 25.1199 17.6134L19.9999 19.3601C19.7373 19.4488 19.5088 19.6172 19.3463 19.8418C19.1838 20.0664 19.0953 20.3362 19.0933 20.6134V24.6134C19.1238 26.0199 19.5605 27.3875 20.3506 28.5514C21.1408 29.7154 22.2507 30.6259 23.5466 31.1734L24.9866 31.8267C25.1603 31.906 25.349 31.947 25.5399 31.947C25.7309 31.947 25.9196 31.906 26.0933 31.8267L27.5333 31.1734C28.8235 30.6317 29.9307 29.7302 30.7227 28.5764C31.5147 27.4227 31.9581 26.0655 31.9999 24.6667V20.6667C32.0092 20.3804 31.926 20.0988 31.7627 19.8634C31.5994 19.6281 31.3647 19.4516 31.0933 19.3601ZM29.4666 22.4667L25.5866 27.3067C25.4986 27.4151 25.3888 27.5039 25.2644 27.5673C25.14 27.6307 25.0037 27.6673 24.8643 27.6748C24.7249 27.6824 24.5855 27.6606 24.455 27.611C24.3245 27.5614 24.2058 27.485 24.1066 27.3867L22.1733 25.4534C22.0789 25.3615 22.0039 25.2516 21.9527 25.1302C21.9015 25.0088 21.8752 24.8785 21.8752 24.7467C21.8752 24.615 21.9015 24.4846 21.9527 24.3632C22.0039 24.2419 22.0789 24.132 22.1733 24.0401C22.3608 23.8528 22.6149 23.7476 22.8799 23.7476C23.1449 23.7476 23.3991 23.8528 23.5866 24.0401L24.7333 25.1867L27.9066 21.1867C28.0728 20.9799 28.3144 20.8475 28.5782 20.8187C28.842 20.79 29.1064 20.8672 29.3133 21.0334C29.5201 21.1996 29.6525 21.4412 29.6813 21.705C29.71 21.9688 29.6328 22.2332 29.4666 22.4401V22.4667Z" fill="#4E87C4"/>
    </g>
    <defs>
        <clipPath id="clip0_560_699">
            <rect width="32" height="32" fill="white"/>
        </clipPath>
    </defs>
</svg>
