<svg width="32" height="32" viewBox="0 0 32 32" fill="none" xmlns="http://www.w3.org/2000/svg">
    <g clip-path="url(#clip0_560_315)">
        <path d="M22.6667 0C20.8208 0 19.0162 0.547391 17.4814 1.57295C15.9465 2.59851 14.7503 4.05618 14.0438 5.76162C13.3374 7.46706 13.1526 9.34369 13.5127 11.1542C13.8728 12.9647 14.7618 14.6277 16.067 15.933C17.3723 17.2383 19.0354 18.1272 20.8459 18.4873C22.6564 18.8475 24.533 18.6626 26.2384 17.9562C27.9439 17.2498 29.4015 16.0535 30.4271 14.5187C31.4527 12.9838 32 11.1793 32 9.33333C32 6.85798 31.0167 4.48401 29.2664 2.73367C27.516 0.98333 25.1421 0 22.6667 0ZM24.12 8.29333C24.3853 8.29333 24.6396 8.39869 24.8272 8.58623C25.0147 8.77376 25.12 9.02812 25.12 9.29333C25.12 9.55855 25.0147 9.8129 24.8272 10.0004C24.6396 10.188 24.3853 10.2933 24.12 10.2933H21.3334C21.2784 10.2938 21.2244 10.3074 21.1757 10.3329C21.127 10.3584 21.0851 10.3951 21.0534 10.44C21.0265 10.4891 21.0125 10.5441 21.0125 10.6C21.0125 10.6559 21.0265 10.7109 21.0534 10.76C21.4668 11.5836 22.1067 12.2721 22.898 12.7445C23.6892 13.2168 24.5989 13.4535 25.52 13.4267C25.7853 13.4267 26.0396 13.532 26.2272 13.7196C26.4147 13.9071 26.52 14.1614 26.52 14.4267C26.52 14.6919 26.4147 14.9462 26.2272 15.1338C26.0396 15.3213 25.7853 15.4267 25.52 15.4267C24.0289 15.4843 22.5616 15.04 21.3529 14.1649C20.1443 13.2899 19.2641 12.0346 18.8534 10.6C18.833 10.5272 18.7894 10.4631 18.7293 10.4173C18.6691 10.3716 18.5956 10.3468 18.52 10.3467H18.2267C17.9615 10.3467 17.7071 10.2413 17.5196 10.0538C17.3321 9.86624 17.2267 9.61188 17.2267 9.34667C17.2267 9.08145 17.3321 8.8271 17.5196 8.63956C17.7071 8.45202 17.9615 8.34667 18.2267 8.34667H18.52C18.5974 8.34578 18.6722 8.31905 18.7326 8.27072C18.793 8.2224 18.8355 8.15527 18.8534 8.08C19.2641 6.64543 20.1443 5.39014 21.3529 4.51506C22.5616 3.63997 24.0289 3.19569 25.52 3.25333C25.7853 3.25333 26.0396 3.35869 26.2272 3.54623C26.4147 3.73376 26.52 3.98812 26.52 4.25333C26.52 4.51855 26.4147 4.7729 26.2272 4.96044C26.0396 5.14798 25.7853 5.25333 25.52 5.25333C24.5989 5.22648 23.6892 5.46316 22.898 5.93555C22.1067 6.40794 21.4668 7.0964 21.0534 7.92C21.0265 7.96906 21.0125 8.02408 21.0125 8.08C21.0125 8.13592 21.0265 8.19094 21.0534 8.24C21.0844 8.2866 21.1259 8.32533 21.1745 8.35311C21.2231 8.38088 21.2775 8.39694 21.3334 8.4L24.12 8.29333Z" fill="#4E87C4"/>
        <path d="M0.613353 16.9068C0.362873 16.6818 0.18639 16.3863 0.107139 16.0591C0.0278885 15.7319 0.0495868 15.3884 0.169377 15.0737C0.289167 14.7591 0.501433 14.4881 0.778226 14.2965C1.05502 14.1048 1.38336 14.0015 1.72002 14.0001C2.12995 13.9953 2.52608 14.148 2.82669 14.4268L12.36 22.9068C12.422 22.9577 12.4998 22.9855 12.58 22.9855C12.6603 22.9855 12.738 22.9577 12.8 22.9068L16.6667 19.8134C17.2065 19.3899 17.8787 19.1709 18.5644 19.1953C19.2501 19.2197 19.905 19.4859 20.4134 19.9468L27.08 26.1601C27.1438 26.2182 27.2271 26.2504 27.3134 26.2504C27.3997 26.2504 27.4829 26.2182 27.5467 26.1601L29.4934 24.2134C29.5539 24.1507 29.6263 24.1006 29.7065 24.0663C29.7866 24.0319 29.8728 24.014 29.96 24.0134C30.0479 23.9947 30.1388 23.9947 30.2267 24.0134C30.3449 24.0669 30.4454 24.153 30.5163 24.2617C30.5872 24.3703 30.6255 24.497 30.6267 24.6268V31.2934C30.6267 31.4703 30.5564 31.6398 30.4314 31.7648C30.3064 31.8899 30.1368 31.9601 29.96 31.9601H23.2934C23.1617 31.9595 23.0333 31.9199 22.9241 31.8463C22.815 31.7727 22.73 31.6685 22.68 31.5468C22.6329 31.4253 22.6217 31.2929 22.6477 31.1653C22.6737 31.0376 22.7358 30.9201 22.8267 30.8268L24.72 28.9334C24.7776 28.8665 24.8106 28.7818 24.8134 28.6934C24.8128 28.6483 24.803 28.6038 24.7847 28.5625C24.7663 28.5212 24.7398 28.4841 24.7067 28.4534L18.6667 22.8668C18.6047 22.8159 18.5269 22.788 18.4467 22.788C18.3664 22.788 18.2887 22.8159 18.2267 22.8668L14.36 25.9601C13.8291 26.3789 13.1673 26.5966 12.4914 26.5746C11.8156 26.5527 11.1693 26.2925 10.6667 25.8401L0.613353 16.9068Z" fill="#4E87C4"/>
    </g>
    <defs>
        <clipPath id="clip0_560_315">
            <rect width="32" height="32" fill="white"/>
        </clipPath>
    </defs>
</svg>
