<svg width="24" height="32" viewBox="0 0 24 32" fill="none" xmlns="http://www.w3.org/2000/svg">
    <path d="M7.99896 10.6615H16.001C16.3547 10.6615 16.694 10.521 16.9441 10.2709C17.1942 10.0208 17.3347 9.68153 17.3347 9.32782C17.3347 8.9741 17.1942 8.63488 16.9441 8.38477C16.694 8.13465 16.3547 7.99414 16.001 7.99414H7.99896C7.64525 7.99414 7.30602 8.13465 7.05591 8.38477C6.8058 8.63488 6.66528 8.9741 6.66528 9.32782C6.66528 9.68153 6.8058 10.0208 7.05591 10.2709C7.30602 10.521 7.64525 10.6615 7.99896 10.6615Z" fill="#4E87C4"/>
    <path d="M8.62588 5.9936C8.64554 6.15625 8.72438 6.30597 8.84737 6.4142C8.97036 6.52243 9.12889 6.5816 9.29272 6.58042H14.6674C14.8305 6.57876 14.9875 6.5186 15.1099 6.41089C15.2323 6.30319 15.3119 6.1551 15.3343 5.9936C15.6267 4.57571 16.1686 3.22101 16.9347 1.99257C17.0054 1.87336 17.0345 1.7341 17.0176 1.59655C17.0007 1.45901 16.9387 1.33094 16.8413 1.23237C16.7609 1.12642 16.6506 1.04694 16.5247 1.00416C16.3987 0.961384 16.2628 0.957256 16.1345 0.99231L13.6538 2.05925C13.6123 2.07933 13.5667 2.08976 13.5205 2.08976C13.4743 2.08976 13.4287 2.07933 13.3871 2.05925C13.3044 2.02846 13.2372 1.96611 13.2004 1.88587L12.6136 0.405492C12.5623 0.285202 12.4769 0.18263 12.3678 0.110534C12.2587 0.0384383 12.1308 0 12.0001 0C11.8693 0 11.7415 0.0384383 11.6324 0.110534C11.5233 0.18263 11.4378 0.285202 11.3866 0.405492L10.7998 1.88587C10.7629 1.96611 10.6958 2.02846 10.6131 2.05925C10.5715 2.07933 10.5259 2.08976 10.4797 2.08976C10.4335 2.08976 10.3879 2.07933 10.3463 2.05925L7.86569 0.99231C7.73848 0.940859 7.59851 0.9299 7.46485 0.960928C7.33119 0.991956 7.21035 1.06346 7.11883 1.16569C7.02143 1.26426 6.95943 1.39233 6.94254 1.52987C6.92565 1.66741 6.95481 1.80668 7.02547 1.92588C7.7989 3.17468 8.34102 4.55259 8.62588 5.9936Z" fill="#4E87C4"/>
    <path d="M16.5879 12.155C16.4503 12.0493 16.2812 11.9929 16.1078 11.9949H7.89231C7.71885 11.9929 7.54975 12.0493 7.41219 12.155C4.01131 14.8223 0.210327 19.3568 0.210327 23.3579C0.210327 28.9993 3.35781 32.0001 12 32.0001C20.6423 32.0001 23.7897 28.9993 23.7897 23.3579C23.7897 19.3568 20.0021 14.7556 16.5879 12.155ZM13.3337 20.9972C13.599 20.9972 13.8534 21.1026 14.041 21.2902C14.2286 21.4778 14.334 21.7322 14.334 21.9975C14.334 22.2628 14.2286 22.5172 14.041 22.7048C13.8534 22.8924 13.599 22.9978 13.3337 22.9978H10.9464C10.8958 22.9962 10.8454 23.0062 10.7992 23.027C10.753 23.0478 10.7121 23.0788 10.6797 23.1178C10.661 23.1621 10.6514 23.2097 10.6514 23.2578C10.6514 23.3059 10.661 23.3535 10.6797 23.3979C11.1065 25.345 12.5202 26.332 14.8808 26.332C15.1461 26.332 15.4005 26.4373 15.5881 26.6249C15.7757 26.8125 15.881 27.0669 15.881 27.3322C15.881 27.5975 15.7757 27.8519 15.5881 28.0395C15.4005 28.2271 15.1461 28.3325 14.8808 28.3325C11.3599 28.3325 9.13263 26.4653 8.6525 23.2778C8.64271 23.2001 8.60471 23.1286 8.54571 23.0769C8.48671 23.0253 8.41082 22.9971 8.33242 22.9978H7.18546C6.92018 22.9978 6.66576 22.8924 6.47817 22.7048C6.29059 22.5172 6.1852 22.2628 6.1852 21.9975C6.1852 21.7322 6.29059 21.4778 6.47817 21.2902C6.66576 21.1026 6.92018 20.9972 7.18546 20.9972H8.26574C8.34413 20.9979 8.42002 20.9697 8.47902 20.9181C8.53802 20.8664 8.57602 20.795 8.58582 20.7172C9.06594 17.5297 11.2532 15.6625 14.8141 15.6625C15.0794 15.6625 15.3338 15.7679 15.5214 15.9555C15.709 16.1431 15.8144 16.3975 15.8144 16.6628C15.8144 16.9281 15.709 17.1825 15.5214 17.3701C15.3338 17.5577 15.0794 17.6631 14.8141 17.6631C12.4535 17.6631 11.0398 18.65 10.613 20.5971C10.5943 20.6415 10.5847 20.6891 10.5847 20.7372C10.5847 20.7853 10.5943 20.8329 10.613 20.8772C10.6454 20.9162 10.6863 20.9472 10.7325 20.968C10.7787 20.9888 10.8291 20.9988 10.8797 20.9972H13.3337Z" fill="#4E87C4"/>
</svg>