<svg width="32" height="32" viewBox="0 0 32 32" fill="none" xmlns="http://www.w3.org/2000/svg">
    <g clip-path="url(#clip0_560_324)">
        <path fill-rule="evenodd" clip-rule="evenodd" d="M31.75 16C31.75 9.41036 27.7031 3.76591 21.9591 1.41637C21.2673 1.66249 20.6067 1.98823 20.0088 2.44416C20.5768 3.08192 20.922 3.92253 20.922 4.84375C20.922 4.8942 20.9209 4.9444 20.9189 4.99435C24.7761 8.67528 27.4825 13.8343 28.1127 19.7552C28.9304 20.4169 29.4532 21.4287 29.4532 22.5625C29.4532 22.9616 29.3884 23.3457 29.2688 23.7047C29.3839 23.7771 29.4955 23.8565 29.6037 23.9424C30.968 21.6107 31.75 18.8967 31.75 16ZM25.8439 26.1719C26.7236 26.1719 27.53 25.8571 28.1563 25.334C28.2667 25.3967 28.3809 25.4805 28.4972 25.5868C25.618 29.3344 21.0911 31.75 16 31.75C13.876 31.75 11.8502 31.3296 10.0013 30.5673C9.99751 30.5491 9.99317 30.5307 9.98828 30.5123C9.40548 28.3256 9.10945 25.8267 9.10945 23.3135C9.10945 21.8607 9.20875 20.4072 9.40756 18.9531H9.43759C10.7532 18.9531 11.9044 18.2492 12.5352 17.1975C16.6028 17.756 20.0089 19.2783 22.4361 21.37C22.3055 21.7433 22.2344 22.1445 22.2344 22.5625C22.2344 24.5559 23.8504 26.1719 25.8439 26.1719ZM7.49893 18.3888C7.03032 18.0899 6.63535 17.6857 6.34728 17.2096C4.27075 17.5149 2.25068 17.9409 0.4592 18.5735C1.21 23.1417 3.92648 27.0481 7.71132 29.3951C7.32947 27.4567 7.14071 25.3807 7.14071 23.3135C7.14071 21.6711 7.26021 20.0295 7.49893 18.3888ZM13.0464 15.2817C13.0258 14.056 12.3941 12.979 11.4429 12.3422C12.3641 10.5421 13.5444 8.89625 14.8779 7.50832C15.5197 8.09515 16.3744 8.45312 17.3125 8.45312C18.4815 8.45312 19.5205 7.89751 20.1801 7.03599C23.1665 10.1335 25.3109 14.2537 26.0252 18.9576C25.9651 18.9547 25.9047 18.9531 25.8439 18.9531C24.9847 18.9531 24.1956 19.2533 23.5759 19.7545C20.8867 17.4907 17.2547 15.9003 13.0464 15.2817ZM9.54421 11.7359C9.50879 11.7349 9.47325 11.7344 9.43759 11.7344C7.45996 11.7344 5.85383 13.3249 5.82851 15.2965C3.92599 15.5848 2.02044 15.9816 0.259821 16.5615C0.253292 16.3751 0.25 16.188 0.25 16C0.25 7.30151 7.30151 0.25 16 0.25C17.1075 0.25 18.1883 0.3643 19.2311 0.581747C18.8933 0.807037 18.5633 1.06338 18.2464 1.35633C17.9485 1.27679 17.6355 1.23437 17.3125 1.23437C15.3192 1.23437 13.7032 2.85035 13.7032 4.84375C13.7032 5.16501 13.7452 5.47648 13.824 5.77296C12.1319 7.44877 10.6531 9.48913 9.54421 11.7359Z" fill="#4E87C4"/>
    </g>
    <defs>
        <clipPath id="clip0_560_324">
            <rect width="32" height="32" fill="white"/>
        </clipPath>
    </defs>
</svg>
