<svg width="16" height="16" viewBox="0 0 16 16" fill="none" xmlns="http://www.w3.org/2000/svg">
    <g clip-path="url(#clip0_173_529)">
        <path d="M15.1135 11.3333L13.4801 9.7C13.3063 9.52261 13.0989 9.38169 12.8699 9.28549C12.641 9.18928 12.3951 9.13973 12.1468 9.13973C11.8984 9.13973 11.6526 9.18928 11.4237 9.28549C11.1947 9.38169 10.9873 9.52261 10.8135 9.7L10.4868 10.0267C8.84155 8.65369 7.32218 7.13655 5.94679 5.49333L6.28012 5.16C6.63349 4.80624 6.83197 4.32668 6.83197 3.82667C6.83197 3.32666 6.63349 2.84709 6.28012 2.49333L4.66679 0.880001C4.30968 0.53302 3.83137 0.338917 3.33345 0.338917C2.83553 0.338917 2.35723 0.53302 2.00012 0.880001L1.10679 1.77333C0.67863 2.20718 0.412024 2.77461 0.351373 3.38113C0.290721 3.98764 0.439685 4.59663 0.773453 5.10667C3.4376 9.1175 6.87596 12.5559 10.8868 15.22C11.3968 15.5538 12.0058 15.7027 12.6123 15.6421C13.2188 15.5814 13.7863 15.3148 14.2201 14.8867L15.1135 14C15.2908 13.8262 15.4318 13.6187 15.528 13.3898C15.6242 13.1609 15.6737 12.915 15.6737 12.6667C15.6737 12.4183 15.6242 12.1725 15.528 11.9435C15.4318 11.7146 15.2908 11.5071 15.1135 11.3333Z" fill="#4E87C4"/>
    </g>
    <defs>
        <clipPath id="clip0_173_529">
            <rect width="16" height="16" fill="white"/>
        </clipPath>
    </defs>
</svg>
