<svg width="32" height="32" viewBox="0 0 32 32" fill="none" xmlns="http://www.w3.org/2000/svg">
    <g clip-path="url(#clip0_560_365)">
        <path d="M12.2934 19.72C12.6027 20.0245 13.0193 20.1952 13.4534 20.1952C13.8874 20.1952 14.3041 20.0245 14.6134 19.72L24.0934 10.8C24.4152 10.4959 24.603 10.0764 24.6155 9.63382C24.628 9.19123 24.4642 8.7618 24.16 8.44001C23.8559 8.11821 23.4364 7.93041 22.9939 7.9179C22.5513 7.9054 22.1218 8.06923 21.8 8.37334L13.52 16.1867L11.5067 14.1867C11.1955 13.872 10.7721 13.6937 10.3295 13.6912C9.88689 13.6887 9.46143 13.8622 9.14671 14.1733C8.83199 14.4845 8.65377 14.908 8.65127 15.3506C8.64877 15.7932 8.82219 16.2186 9.13338 16.5333L12.2934 19.72Z" fill="#4E87C4"/>
        <path d="M26.7334 0H5.33338C4.62613 0 3.94785 0.280952 3.44776 0.781049C2.94766 1.28115 2.66671 1.95942 2.66671 2.66667V10.6667C2.65525 15.0274 3.8321 19.3088 6.07084 23.051C8.30958 26.7932 11.5256 29.8547 15.3734 31.9067C15.5663 32.0094 15.7815 32.0631 16 32.0631C16.2186 32.0631 16.4338 32.0094 16.6267 31.9067C20.4745 29.8547 23.6905 26.7932 25.9292 23.051C28.168 19.3088 29.3448 15.0274 29.3334 10.6667V2.66667C29.3336 1.97082 29.0618 1.30246 28.576 0.804233C28.0903 0.306009 27.429 0.0173961 26.7334 0ZM26.6667 10.6667C26.6793 14.4236 25.6995 18.1171 23.8265 21.3739C21.9535 24.6306 19.2536 27.3349 16 29.2133C12.7464 27.3349 10.0466 24.6306 8.17359 21.3739C6.30057 18.1171 5.3208 14.4236 5.33338 10.6667V3.33333C5.33338 3.15652 5.40361 2.98695 5.52864 2.86193C5.65366 2.7369 5.82323 2.66667 6.00004 2.66667H26C26.1769 2.66667 26.3464 2.7369 26.4714 2.86193C26.5965 2.98695 26.6667 3.15652 26.6667 3.33333V10.6667Z" fill="#4E87C4"/>
    </g>
    <defs>
        <clipPath id="clip0_560_365">
            <rect width="32" height="32" fill="white"/>
        </clipPath>
    </defs>
</svg>
