<svg width="32" height="32" viewBox="0 0 32 32" fill="none" xmlns="http://www.w3.org/2000/svg">
    <path d="M27.3333 9.33333C28.258 9.3333 29.1618 9.05857 29.9301 8.544C30.6984 8.02943 31.2965 7.29822 31.6485 6.44316C32.0005 5.58811 32.0905 4.64775 31.9072 3.74144C31.7239 2.83512 31.2754 2.00369 30.6188 1.35266C29.9621 0.701641 29.1269 0.260369 28.219 0.0848472C27.3111 -0.0906745 26.3716 0.007467 25.5196 0.366817C24.6676 0.726168 23.9416 1.33053 23.4336 2.1032C22.9257 2.87587 22.6587 3.78203 22.6667 4.70667C22.6772 5.9374 23.1735 7.11414 24.0476 7.98067C24.9216 8.84721 26.1026 9.33338 27.3333 9.33333ZM26.3333 3.33334C26.3333 3.06812 26.4387 2.81377 26.6262 2.62623C26.8138 2.43869 27.0681 2.33334 27.3333 2.33334C27.5986 2.33334 27.8529 2.43869 28.0404 2.62623C28.228 2.81377 28.3333 3.06812 28.3333 3.33334V6C28.3333 6.26522 28.228 6.51957 28.0404 6.70711C27.8529 6.89465 27.5986 7 27.3333 7C27.0681 7 26.8138 6.89465 26.6262 6.70711C26.4387 6.51957 26.3333 6.26522 26.3333 6V3.33334Z" fill="#4E87C4"/>
    <path d="M18.6666 21.3333C19.8533 21.3333 21.0134 20.9814 22.0001 20.3221C22.9868 19.6628 23.7558 18.7257 24.2099 17.6294C24.664 16.533 24.7829 15.3266 24.5514 14.1627C24.3198 12.9988 23.7484 11.9297 22.9093 11.0906C22.0702 10.2515 21.0011 9.68005 19.8372 9.44854C18.6733 9.21703 17.4669 9.33585 16.3705 9.78998C15.2742 10.2441 14.3371 11.0131 13.6778 11.9998C13.0185 12.9865 12.6666 14.1466 12.6666 15.3333C12.6649 16.1217 12.8189 16.9027 13.1198 17.6314C13.4207 18.3602 13.8626 19.0223 14.4201 19.5798C14.9776 20.1373 15.6397 20.5792 16.3685 20.8801C17.0972 21.181 17.8782 21.335 18.6666 21.3333ZM17.6666 13.7199C17.6666 13.4547 17.772 13.2004 17.9595 13.0128C18.1471 12.8253 18.4014 12.7199 18.6666 12.7199C18.9319 12.7199 19.1862 12.8253 19.3737 13.0128C19.5613 13.2004 19.6666 13.4547 19.6666 13.7199V16.9599C19.6666 17.2251 19.5613 17.4795 19.3737 17.667C19.1862 17.8546 18.9319 17.9599 18.6666 17.9599C18.4014 17.9599 18.1471 17.8546 17.9595 17.667C17.772 17.4795 17.6666 17.2251 17.6666 16.9599V13.7199Z" fill="#4E87C4"/>
    <path d="M0.586667 20.04H4.08C4.08 20.04 4.66667 20.04 4.66667 20.6267V28.7867C4.66667 28.7867 4.66667 29.3734 4.08 29.3734H0.586667C0.586667 29.3734 0 29.3734 0 28.7867V20.6267C0 20.6267 0 20.04 0.586667 20.04Z" fill="#4E87C4"/>
    <path d="M14.4934 23.9999C14.445 23.9995 14.3972 23.9886 14.3535 23.9678C14.3097 23.9471 14.271 23.9171 14.24 23.8799C13.6693 23.1107 12.9308 22.4816 12.0806 22.0403C11.2304 21.5991 10.2909 21.3573 9.33336 21.3333H6.33336C6.24495 21.3333 6.16017 21.3684 6.09766 21.4309C6.03515 21.4934 6.00003 21.5782 6.00003 21.6666V28.5066C5.99914 28.577 6.0206 28.6459 6.06133 28.7034C6.10205 28.7609 6.15994 28.804 6.22669 28.8266C12.1334 30.8399 14.6667 31.9999 16.88 31.9999C19.5467 31.9999 21.8667 30.3333 29.2667 26.5466C29.6044 26.4352 29.884 26.1942 30.0441 25.8766C30.2041 25.5591 30.2314 25.191 30.12 24.8533C30.0086 24.5155 29.7677 24.2359 29.4501 24.0759C29.1325 23.9159 28.7644 23.8885 28.4267 23.9999C28.0567 24.0036 27.6889 24.0574 27.3334 24.1599L22.84 25.5866C22.781 25.6092 22.7289 25.647 22.6891 25.6962C22.6494 25.7453 22.6232 25.8041 22.6134 25.8666C22.4904 26.4689 22.1631 27.0103 21.6869 27.399C21.2107 27.7878 20.6148 28 20 27.9999H14.6667C14.4899 27.9999 14.3203 27.9297 14.1953 27.8047C14.0703 27.6796 14 27.5101 14 27.3333C14 27.1564 14.0703 26.9869 14.1953 26.8618C14.3203 26.7368 14.4899 26.6666 14.6667 26.6666H20C20.3536 26.6666 20.6928 26.5261 20.9428 26.2761C21.1929 26.026 21.3334 25.6869 21.3334 25.3333C21.3334 24.9796 21.1929 24.6405 20.9428 24.3904C20.6928 24.1404 20.3536 23.9999 20 23.9999H14.4934Z" fill="#4E87C4"/>
</svg>
