<svg width="32" height="32" viewBox="0 0 32 32" fill="none" xmlns="http://www.w3.org/2000/svg">
    <g clip-path="url(#clip0_560_600)">
        <path d="M8.21069 1.39502H10.8071" stroke="#4E87C4" stroke-width="2.6667" stroke-miterlimit="10" stroke-linecap="round" stroke-linejoin="round"/>
        <path d="M14.7017 1.39502H17.2981" stroke="#4E87C4" stroke-width="2.6667" stroke-miterlimit="10" stroke-linecap="round" stroke-linejoin="round"/>
        <path d="M21.1929 1.39502H23.7893" stroke="#4E87C4" stroke-width="2.6667" stroke-miterlimit="10" stroke-linecap="round" stroke-linejoin="round"/>
        <path fill-rule="evenodd" clip-rule="evenodd" d="M3.99155 2.72843C3.29988 2.72843 2.72843 3.29988 2.72843 3.99155C2.72843 4.72792 2.13148 5.32488 1.39509 5.32488C0.658721 5.32488 0.0617676 4.72792 0.0617676 3.99155C0.0617676 1.82712 1.82712 0.0617676 3.99155 0.0617676C4.72792 0.0617676 5.32488 0.658721 5.32488 1.39509C5.32488 2.13148 4.72792 2.72843 3.99155 2.72843ZM1.39509 6.87744C2.13148 6.87744 2.72843 7.4744 2.72843 8.21077V10.8072C2.72843 11.5436 2.13148 12.1405 1.39509 12.1405C0.658721 12.1405 0.0617676 11.5436 0.0617676 10.8072V8.21077C0.0617676 7.4744 0.658721 6.87744 1.39509 6.87744ZM2.72843 14.7018C2.72843 13.9655 2.13148 13.3685 1.39509 13.3685C0.658721 13.3685 0.0617676 13.9655 0.0617676 14.7018V17.2983C0.0617676 18.0347 0.658721 18.6317 1.39509 18.6317C2.13148 18.6317 2.72843 18.0347 2.72843 17.2983V14.7018ZM0.809303 21.5809C1.3202 21.0699 2.00085 20.8333 2.69332 20.8333H8.53531C9.22777 20.8333 9.90844 21.0699 10.4193 21.5809C10.9302 22.0917 11.1669 22.7723 11.1669 23.4649V29.3069C11.1669 29.9993 10.9302 30.6799 10.4193 31.1909C9.90844 31.7018 9.22777 31.9383 8.53531 31.9383H2.69332C2.00085 31.9383 1.3202 31.7018 0.809303 31.1909C0.298408 30.6799 0.0617676 29.9993 0.0617676 29.3069V23.4649C0.0617676 22.7723 0.298408 22.0917 0.809303 21.5809ZM31.9383 14.7018C31.9383 13.9655 31.3414 13.3685 30.605 13.3685C29.8687 13.3685 29.2717 13.9655 29.2717 14.7018V17.2983C29.2717 18.0347 29.8687 18.6317 30.605 18.6317C31.3414 18.6317 31.9383 18.0347 31.9383 17.2983V14.7018ZM30.605 19.8597C31.3414 19.8597 31.9383 20.4566 31.9383 21.193V23.7894C31.9383 24.5258 31.3414 25.1227 30.605 25.1227C29.8687 25.1227 29.2717 24.5258 29.2717 23.7894V21.193C29.2717 20.4566 29.8687 19.8597 30.605 19.8597ZM31.9383 8.21077C31.9383 7.4744 31.3414 6.87744 30.605 6.87744C29.8687 6.87744 29.2717 7.4744 29.2717 8.21077V10.8072C29.2717 11.5436 29.8687 12.1405 30.605 12.1405C31.3414 12.1405 31.9383 11.5436 31.9383 10.8072V8.21077ZM14.7018 29.2717C13.9654 29.2717 13.3685 29.8687 13.3685 30.605C13.3685 31.3414 13.9654 31.9383 14.7018 31.9383H17.2982C18.0346 31.9383 18.6315 31.3414 18.6315 30.605C18.6315 29.8687 18.0346 29.2717 17.2982 29.2717H14.7018ZM19.8597 30.605C19.8597 29.8687 20.4566 29.2717 21.193 29.2717H23.7894C24.5258 29.2717 25.1227 29.8687 25.1227 30.605C25.1227 31.3414 24.5258 31.9383 23.7894 31.9383H21.193C20.4566 31.9383 19.8597 31.3414 19.8597 30.605ZM28.0086 0.0617676C27.2722 0.0617676 26.6753 0.658721 26.6753 1.39509C26.6753 2.13148 27.2722 2.72843 28.0086 2.72843C28.7003 2.72843 29.2717 3.29988 29.2717 3.99155C29.2717 4.72792 29.8687 5.32488 30.605 5.32488C31.3414 5.32488 31.9383 4.72792 31.9383 3.99155C31.9383 1.82712 30.173 0.0617676 28.0086 0.0617676ZM30.605 26.6753C31.3414 26.6753 31.9383 27.2722 31.9383 28.0086C31.9383 30.173 30.173 31.9383 28.0086 31.9383C27.2722 31.9383 26.6753 31.3414 26.6753 30.605C26.6753 29.8687 27.2722 29.2717 28.0086 29.2717C28.7003 29.2717 29.2717 28.7003 29.2717 28.0086C29.2717 27.2722 29.8687 26.6753 30.605 26.6753ZM14.0867 13.6291C13.7054 13.2479 13.1319 13.1338 12.6336 13.3402C12.1354 13.5466 11.8105 14.0327 11.8105 14.5721V19.1158C11.8105 19.3071 11.8508 19.489 11.9234 19.6535C11.9775 19.7764 12.0511 19.8927 12.144 19.9979C12.1879 20.0476 12.2353 20.0939 12.2861 20.1366C12.3765 20.2127 12.4745 20.2749 12.5775 20.3231C12.7494 20.4039 12.9414 20.4491 13.1439 20.4491H17.6877C18.2269 20.4491 18.7131 20.1242 18.9195 19.6261C19.1258 19.1278 19.0118 18.5543 18.6305 18.173L17.283 16.8255L23.2235 10.8168L24.5342 12.1275C24.9155 12.5088 25.489 12.6229 25.9873 12.4165C26.4854 12.2101 26.8103 11.724 26.8103 11.1847V6.64091C26.8103 6.45003 26.7702 6.26851 26.6979 6.10432C26.639 5.97015 26.557 5.84372 26.4517 5.73115C26.4254 5.70292 26.3978 5.67585 26.3691 5.65001C26.1329 5.43715 25.8201 5.30757 25.477 5.30757H20.9333C20.3939 5.30757 19.9078 5.63243 19.7014 6.13067C19.495 6.62889 19.6091 7.20239 19.9905 7.58372L21.3378 8.93113L15.3974 14.9398L14.0867 13.6291Z" fill="#4E87C4"/>
    </g>
    <defs>
        <clipPath id="clip0_560_600">
            <rect width="32" height="32" fill="white"/>
        </clipPath>
    </defs>
</svg>