<svg width="32" height="32" viewBox="0 0 32 32" fill="none" xmlns="http://www.w3.org/2000/svg">
    <path d="M12 22.6665H1.33333C0.979711 22.6665 0.640573 22.807 0.390524 23.057C0.140476 23.3071 0 23.6462 0 23.9998C0 25.7679 0.702379 27.4636 1.95262 28.7139C3.20286 29.9641 4.89856 30.6665 6.66667 30.6665C8.43478 30.6665 10.1305 29.9641 11.3807 28.7139C12.631 27.4636 13.3333 25.7679 13.3333 23.9998C13.3333 23.6462 13.1929 23.3071 12.9428 23.057C12.6928 22.807 12.3536 22.6665 12 22.6665Z" fill="#4E87C4"/>
    <path d="M30.6666 22.6665H20C19.6463 22.6665 19.3072 22.807 19.0572 23.057C18.8071 23.3071 18.6666 23.6462 18.6666 23.9998C18.6666 25.7679 19.369 27.4636 20.6192 28.7139C21.8695 29.9641 23.5652 30.6665 25.3333 30.6665C27.1014 30.6665 28.7971 29.9641 30.0473 28.7139C31.2976 27.4636 32 25.7679 32 23.9998C32 23.6462 31.8595 23.3071 31.6094 23.057C31.3594 22.807 31.0202 22.6665 30.6666 22.6665Z" fill="#4E87C4"/>
    <path d="M23.4666 8.79992C23.4861 8.84402 23.4962 8.89171 23.4962 8.93992C23.4962 8.98813 23.4861 9.03581 23.4666 9.07992L20.8 19.8399C20.7778 19.9394 20.7783 20.0425 20.8014 20.1418C20.8245 20.241 20.8695 20.3338 20.9333 20.4133C20.9947 20.4926 21.0736 20.5567 21.1637 20.6006C21.2539 20.6445 21.353 20.6671 21.4533 20.6666H22.7866C22.9361 20.6657 23.081 20.6155 23.1991 20.5239C23.3172 20.4324 23.4019 20.3044 23.44 20.1599L24.9466 14.1199C24.9668 14.0507 25.0089 13.9899 25.0666 13.9466C25.1243 13.9033 25.1945 13.8799 25.2666 13.8799C25.3387 13.8799 25.4089 13.9033 25.4666 13.9466C25.5243 13.9899 25.5664 14.0507 25.5866 14.1199L27.0933 20.1599C27.1314 20.3044 27.216 20.4324 27.3341 20.5239C27.4522 20.6155 27.5972 20.6657 27.7466 20.6666H29.08C29.1803 20.6671 29.2793 20.6445 29.3695 20.6006C29.4597 20.5567 29.5385 20.4926 29.6 20.4133C29.6637 20.3338 29.7088 20.241 29.7319 20.1418C29.755 20.0425 29.7554 19.9394 29.7333 19.8399L27.0666 9.07992C27.0472 9.03581 27.0371 8.98813 27.0371 8.93992C27.0371 8.89171 27.0472 8.84402 27.0666 8.79992C27.0961 8.75685 27.136 8.722 27.1827 8.69866C27.2293 8.67533 27.2812 8.66429 27.3333 8.66659H29.8666C30.2202 8.66659 30.5594 8.52611 30.8094 8.27606C31.0595 8.02601 31.2 7.68687 31.2 7.33325C31.2 6.97963 31.0595 6.64049 30.8094 6.39044C30.5594 6.14039 30.2202 5.99992 29.8666 5.99992H17.8666C17.7138 5.96875 17.5767 5.88497 17.4792 5.76316C17.3818 5.64134 17.3301 5.48922 17.3333 5.33325V2.66659C17.3333 2.31296 17.1928 1.97382 16.9428 1.72378C16.6927 1.47373 16.3536 1.33325 16 1.33325C15.6463 1.33325 15.3072 1.47373 15.0571 1.72378C14.8071 1.97382 14.6666 2.31296 14.6666 2.66659V5.33325C14.6666 5.51006 14.5964 5.67963 14.4714 5.80466C14.3463 5.92968 14.1768 5.99992 14 5.99992H1.99996C1.64634 5.99992 1.3072 6.14039 1.05715 6.39044C0.807102 6.64049 0.666626 6.97963 0.666626 7.33325C0.666626 7.68687 0.807102 8.02601 1.05715 8.27606C1.3072 8.52611 1.64634 8.66659 1.99996 8.66659H4.53329C4.58541 8.66429 4.63726 8.67533 4.68392 8.69866C4.73058 8.722 4.77052 8.75685 4.79996 8.79992C4.81943 8.84402 4.82949 8.89171 4.82949 8.93992C4.82949 8.98813 4.81943 9.03581 4.79996 9.07992L2.13329 19.8399C2.11115 19.9394 2.11163 20.0425 2.13471 20.1418C2.15779 20.241 2.20287 20.3338 2.26663 20.4133C2.32804 20.4926 2.40689 20.5567 2.49706 20.6006C2.58724 20.6445 2.68632 20.6671 2.78663 20.6666H4.11996C4.2694 20.6657 4.41438 20.6155 4.53247 20.5239C4.65057 20.4324 4.7352 20.3044 4.77329 20.1599L6.27996 14.1199C6.30015 14.0507 6.34226 13.9899 6.39996 13.9466C6.45766 13.9033 6.52784 13.8799 6.59996 13.8799C6.67208 13.8799 6.74226 13.9033 6.79996 13.9466C6.85766 13.9899 6.89977 14.0507 6.91996 14.1199L8.42663 20.1599C8.46472 20.3044 8.54935 20.4324 8.66745 20.5239C8.78554 20.6155 8.93052 20.6657 9.07996 20.6666H10.4133C10.5136 20.6671 10.6127 20.6445 10.7029 20.6006C10.793 20.5567 10.8719 20.4926 10.9333 20.4133C10.997 20.3338 11.0421 20.241 11.0652 20.1418C11.0883 20.0425 11.0888 19.9394 11.0666 19.8399L8.39996 9.07992C8.38049 9.03581 8.37043 8.98813 8.37043 8.93992C8.37043 8.89171 8.38049 8.84402 8.39996 8.79992C8.4294 8.75685 8.46934 8.722 8.516 8.69866C8.56266 8.67533 8.61451 8.66429 8.66663 8.66659H13.8666C13.9646 8.64656 14.0658 8.64884 14.1628 8.67325C14.2598 8.69767 14.3501 8.74358 14.4269 8.80761C14.5037 8.87163 14.5652 8.95212 14.6067 9.04311C14.6482 9.1341 14.6687 9.23326 14.6666 9.33325V9.99992C14.6666 10.3535 14.8071 10.6927 15.0571 10.9427C15.3072 11.1928 15.6463 11.3333 16 11.3333C16.3536 11.3333 16.6927 11.1928 16.9428 10.9427C17.1928 10.6927 17.3333 10.3535 17.3333 9.99992V9.33325C17.3333 9.15644 17.4035 8.98687 17.5286 8.86185C17.6536 8.73682 17.8231 8.66659 18 8.66659H23.2C23.2521 8.66429 23.3039 8.67533 23.3506 8.69866C23.3973 8.722 23.4372 8.75685 23.4666 8.79992Z" fill="#4E87C4"/>
</svg>
