<svg width="33" height="30" viewBox="0 0 33 30" fill="none" xmlns="http://www.w3.org/2000/svg">
    <path fill-rule="evenodd" clip-rule="evenodd" d="M0.975349 0.514109C1.27058 0.330251 1.63829 0.316655 1.94579 0.478221C4.05623 1.58716 8.98916 3.23363 16.5 3.23363C24.0108 3.23363 28.9437 1.58716 31.0542 0.478221C31.3616 0.316655 31.7294 0.330251 32.0246 0.514109C32.3199 0.697981 32.5 1.02556 32.5 1.37862V28.6214C32.5 28.9745 32.3199 29.302 32.0246 29.4859C31.7294 29.6698 31.3616 29.6833 31.0542 29.5219C28.9437 28.4129 24.0108 26.7664 16.5 26.7664C8.98916 26.7664 4.05623 28.4129 1.94579 29.5219C1.63829 29.6833 1.27058 29.6698 0.975349 29.4859C0.680119 29.302 0.5 28.9745 0.5 28.6214V1.37862C0.5 1.02556 0.680119 0.697981 0.975349 0.514109ZM6.68908 19.5148L25.2872 8.73791L24.4568 7.20793C24.2614 6.84797 24.3021 6.40573 24.5598 6.08747C24.8177 5.7692 25.2418 5.63759 25.6346 5.75397L29.2201 6.81668C29.7053 6.96051 30.002 7.43571 29.9361 7.92215C29.9269 7.99587 29.9096 8.06837 29.8845 8.13825L28.8405 11.6609C28.7241 12.0536 28.3827 12.3375 27.9753 12.3803C27.568 12.423 27.1749 12.2162 26.9795 11.8562L26.2537 10.5186L7.77202 21.2281L8.57194 22.4936C8.79076 22.8398 8.7795 23.2838 8.54339 23.6183C8.30727 23.9531 7.89279 24.1125 7.49324 24.0225L3.84508 23.2C3.32205 23.0822 2.98558 22.5792 3.06704 22.0571C3.07255 22.0194 3.08018 21.9822 3.08986 21.9454L3.90231 18.3413C3.99237 17.9418 4.31425 17.6358 4.71787 17.5662C5.12148 17.4965 5.52732 17.6767 5.74617 18.0229L6.68908 19.5148Z" fill="#4E87C4"/>
</svg>