<svg width="32" height="32" viewBox="0 0 32 32" fill="none" xmlns="http://www.w3.org/2000/svg">
    <path fill-rule="evenodd" clip-rule="evenodd" d="M30.9334 4.1334C30.9334 2.80006 29.8668 1.7334 28.5334 1.7334H27.4668C26.6668 1.7334 26.1334 2.26673 26.1334 3.06673V17.7334C26.1334 18.5334 26.6668 19.0667 27.4668 19.0667H28.5334C29.8668 19.0667 30.9334 20.1334 30.9334 21.4667V4.1334ZM24.1334 17.7334V3.46673H12.2668C11.4668 3.46673 10.9334 4.00007 10.9334 4.80007V6.51873C11.6301 6.63648 12.2629 6.99635 12.7202 7.53491C13.1775 8.07348 13.4301 8.75619 13.4334 9.46273C14.9115 10.5575 15.9751 12.1206 16.4508 13.8974C16.9213 14.0341 17.3559 14.2728 17.7236 14.5966C18.0913 14.9203 18.3832 15.3212 18.5783 15.7706C18.7735 16.22 18.8672 16.7069 18.8528 17.1967C18.8383 17.6864 18.7161 18.1669 18.4948 18.6041C18.5875 19.3182 18.4204 20.042 18.0238 20.6431C17.6273 21.2443 17.0278 21.6828 16.3348 21.8787C16.28 22.0041 16.2222 22.1281 16.1614 22.2507H28.5348C28.7174 22.2507 28.8974 22.2294 29.0681 22.1907C28.9791 21.9598 28.9339 21.7142 28.9348 21.4667C28.9348 21.2374 28.7614 21.0667 28.5348 21.0667H27.4681C26.6121 21.0667 25.7454 20.7734 25.0854 20.1147C24.4268 19.4547 24.1334 18.5881 24.1334 17.7334ZM8.6401 26.2667C12.3361 26.2667 15.5201 28.6867 16.6681 32.0001H0.4841C1.63077 28.6867 4.9441 26.2667 8.63877 26.2667H8.6401ZM2.17743 19.9907C2.93077 22.7987 5.46143 24.9307 8.5121 24.9307C11.6201 24.9307 14.1708 22.8561 14.8761 19.9907H12.0668C11.4681 21.3481 10.1241 22.2641 8.51077 22.2641C6.99077 22.2641 5.64277 21.3347 5.0041 19.9907H2.17743ZM8.10677 8.24806C8.44089 8.24822 8.76278 8.37382 9.00872 8.6C9.25465 8.82618 9.4067 9.13645 9.43477 9.4694V12.6334C9.43477 12.8986 9.54012 13.153 9.72766 13.3405C9.9152 13.528 10.1695 13.6334 10.4348 13.6334C10.7 13.6334 10.9543 13.528 11.1419 13.3405C11.3294 13.153 11.4348 12.8986 11.4348 12.6334V10.5627C12.3923 11.0644 13.2009 11.8093 13.7792 12.7226C14.3576 13.6359 14.6853 14.6853 14.7294 15.7654H15.5214C15.8751 15.7654 16.2142 15.9059 16.4642 16.1559C16.7143 16.406 16.8548 16.7451 16.8548 17.0987C16.8548 17.4524 16.7143 17.7915 16.4642 18.0415C16.2142 18.2916 15.8751 18.4321 15.5214 18.4321H1.50277C1.32767 18.4321 1.15429 18.3976 0.992522 18.3306C0.830755 18.2636 0.683769 18.1654 0.559958 18.0415C0.436146 17.9177 0.337934 17.7707 0.270928 17.609C0.203921 17.4472 0.169434 17.2738 0.169434 17.0987C0.169434 16.9236 0.203921 16.7503 0.270928 16.5885C0.337934 16.4267 0.436146 16.2797 0.559958 16.1559C0.683769 16.0321 0.830755 15.9339 0.992522 15.8669C1.15429 15.7999 1.32767 15.7654 1.50277 15.7654H2.2961C2.4761 13.1107 4.3001 10.8454 6.7721 10.1081V9.5814C6.7721 9.22778 6.91258 8.88864 7.16262 8.63859C7.41267 8.38854 7.75181 8.24806 8.10543 8.24806H8.10677Z" fill="#4E87C4"/>
</svg>